G04*
G04 #@! TF.GenerationSoftware,Altium Limited,Altium Designer,25.3.3 (18)*
G04*
G04 Layer_Color=128*
%FSLAX44Y44*%
%MOMM*%
G71*
G04*
G04 #@! TF.SameCoordinates,BFC568DA-C1B5-42DE-8167-96A376B3F609*
G04*
G04*
G04 #@! TF.FilePolarity,Positive*
G04*
G01*
G75*
%ADD12C,0.1270*%
D12*
X682540Y1059180D02*
X719540D01*
X701040Y1040680D02*
Y1077680D01*
X407480Y1149173D02*
X415480D01*
X411480Y1145173D02*
Y1153173D01*
X407480Y1169173D02*
X415480D01*
X411480Y1165173D02*
Y1173173D01*
X407480Y1189173D02*
X415480D01*
X411480Y1185173D02*
Y1193173D01*
X420920Y1060450D02*
X457920D01*
X439420Y1041950D02*
Y1078950D01*
X716260Y1123950D02*
X726460D01*
X721360Y1118850D02*
Y1129050D01*
X690860Y1123950D02*
X701060D01*
X695960Y1118850D02*
Y1129050D01*
X698560Y1151890D02*
X706060D01*
X702310Y1148140D02*
Y1155640D01*
X723960Y1177290D02*
X731460D01*
X727710Y1173540D02*
Y1181040D01*
X698560Y1202690D02*
X706060D01*
X702310Y1198940D02*
Y1206440D01*
X482854Y1129030D02*
X489966D01*
X486410Y1125474D02*
Y1132586D01*
X501904Y1178560D02*
X509016D01*
X505460Y1175004D02*
Y1182116D01*
X518414Y1173480D02*
X525526D01*
X521970Y1169924D02*
Y1177036D01*
X617474Y1085850D02*
X624586D01*
X621030Y1082294D02*
Y1089406D01*
X504444Y1150620D02*
X511556D01*
X508000Y1147064D02*
Y1154176D01*
X557784Y1087120D02*
X564896D01*
X561340Y1083564D02*
Y1090676D01*
X575474Y1102083D02*
X582586D01*
X579030Y1098527D02*
Y1105639D01*
X511048Y1050544D02*
X518160D01*
X514604Y1046988D02*
Y1054100D01*
M02*
