G04*
G04 #@! TF.GenerationSoftware,Altium Limited,Altium Designer,25.3.3 (18)*
G04*
G04 Layer_Color=0*
%FSLAX44Y44*%
%MOMM*%
G71*
G04*
G04 #@! TF.SameCoordinates,BFC568DA-C1B5-42DE-8167-96A376B3F609*
G04*
G04*
G04 #@! TF.FilePolarity,Positive*
G04*
G01*
G75*
%ADD47C,0.0254*%
G36*
X521483Y1044427D02*
X523163Y1045550D01*
X525145Y1045945D01*
Y1045845D01*
X605155Y1045945D01*
X607137Y1045550D01*
X608817Y1044427D01*
X609940Y1042747D01*
X610335Y1040765D01*
X610235D01*
X610335Y1026160D01*
X609940Y1024178D01*
X608817Y1022497D01*
X607137Y1021375D01*
X605155Y1020981D01*
Y1021080D01*
X525145D01*
Y1020981D01*
X523163Y1021375D01*
X521483Y1022497D01*
X520360Y1024178D01*
X519966Y1026160D01*
X520065D01*
X519966Y1040765D01*
X520360Y1042747D01*
X521483Y1044427D01*
D02*
G37*
G36*
Y1210798D02*
X523163Y1211920D01*
X525145Y1212315D01*
Y1212215D01*
X605155Y1212315D01*
X607137Y1211920D01*
X608817Y1210798D01*
X609940Y1209117D01*
X610335Y1207135D01*
X610235D01*
X610335Y1192530D01*
X609940Y1190548D01*
X608817Y1188867D01*
X607137Y1187745D01*
X605155Y1187350D01*
Y1187450D01*
X525145D01*
Y1187350D01*
X523163Y1187745D01*
X521483Y1188867D01*
X520360Y1190548D01*
X519966Y1192530D01*
X520065D01*
X519966Y1207135D01*
X520360Y1209117D01*
X521483Y1210798D01*
D02*
G37*
D47*
X397510Y1042670D02*
Y1200150D01*
D02*
G02*
X422910Y1225550I25400J0D01*
G01*
X716280D01*
D02*
G02*
X741680Y1200150I0J-25400D01*
G01*
Y1042670D01*
D02*
G02*
X716280Y1017270I-25400J0D01*
G01*
X422910D01*
D02*
G02*
X397510Y1042670I0J25400D01*
G01*
M02*
