G04*
G04 #@! TF.GenerationSoftware,Altium Limited,Altium Designer,25.3.3 (18)*
G04*
G04 Layer_Physical_Order=2*
G04 Layer_Color=16711680*
%FSLAX44Y44*%
%MOMM*%
G71*
G04*
G04 #@! TF.SameCoordinates,BFC568DA-C1B5-42DE-8167-96A376B3F609*
G04*
G04*
G04 #@! TF.FilePolarity,Positive*
G04*
G01*
G75*
%ADD13C,0.2540*%
%ADD31C,7.5000*%
%ADD32R,1.3000X1.3000*%
%ADD33C,1.3000*%
%ADD39R,1.5500X1.5500*%
%ADD40C,1.5500*%
%ADD41C,1.2500*%
%ADD42R,1.2500X1.2500*%
%ADD43C,1.2700*%
G36*
X737870Y1076212D02*
X736600Y1075907D01*
X734634Y1079766D01*
X731000Y1084768D01*
X726628Y1089140D01*
X721626Y1092774D01*
X716117Y1095580D01*
X710238Y1097491D01*
X704131Y1098458D01*
X697949D01*
X691842Y1097491D01*
X685963Y1095580D01*
X680454Y1092774D01*
X675452Y1089140D01*
X671080Y1084768D01*
X667446Y1079766D01*
X664640Y1074258D01*
X662729Y1068378D01*
X661765Y1062288D01*
X523240D01*
X522051Y1062051D01*
X521043Y1061377D01*
X517768Y1058103D01*
X517741Y1058118D01*
X515674Y1058672D01*
X513534D01*
X511467Y1058118D01*
X509613Y1057048D01*
X508100Y1055535D01*
X507030Y1053681D01*
X506476Y1051614D01*
Y1049474D01*
X507030Y1047407D01*
X508100Y1045553D01*
X509613Y1044040D01*
X511467Y1042970D01*
X513534Y1042416D01*
X515674D01*
X517234Y1042834D01*
X518232Y1042058D01*
X518336Y1041865D01*
X518187Y1041119D01*
Y1040934D01*
X518153Y1040753D01*
X518194Y1034681D01*
X517299Y1033780D01*
X469859D01*
X469516Y1035050D01*
X473014Y1039864D01*
X475820Y1045372D01*
X477731Y1051252D01*
X478698Y1057359D01*
Y1063541D01*
X477731Y1069648D01*
X475820Y1075527D01*
X473014Y1081036D01*
X469380Y1086038D01*
X465008Y1090410D01*
X460006Y1094044D01*
X454497Y1096850D01*
X448618Y1098761D01*
X442511Y1099728D01*
X436329D01*
X430222Y1098761D01*
X424342Y1096850D01*
X418834Y1094044D01*
X413832Y1090410D01*
X409460Y1086038D01*
X405826Y1081036D01*
X403020Y1075527D01*
X401320Y1070297D01*
X400050Y1070498D01*
Y1133644D01*
X401223Y1134130D01*
X408774Y1126579D01*
X409783Y1125905D01*
X410972Y1125668D01*
X436609D01*
X477355Y1084922D01*
X478363Y1084249D01*
X479552Y1084012D01*
X553758D01*
X553766Y1083983D01*
X554836Y1082129D01*
X556349Y1080616D01*
X558203Y1079546D01*
X560270Y1078992D01*
X562410D01*
X564477Y1079546D01*
X566331Y1080616D01*
X567844Y1082129D01*
X568914Y1083983D01*
X569468Y1086050D01*
Y1086228D01*
X570641Y1086714D01*
X583609Y1073746D01*
X584618Y1073073D01*
X585807Y1072836D01*
X611124D01*
X612313Y1073073D01*
X613321Y1073746D01*
X617866Y1078291D01*
X617893Y1078276D01*
X619960Y1077722D01*
X622100D01*
X624167Y1078276D01*
X626021Y1079346D01*
X627534Y1080859D01*
X628604Y1082713D01*
X629158Y1084780D01*
Y1086920D01*
X628604Y1088987D01*
X627534Y1090841D01*
X626021Y1092354D01*
X624167Y1093424D01*
X622100Y1093978D01*
X619960D01*
X617893Y1093424D01*
X616039Y1092354D01*
X614526Y1090841D01*
X613456Y1088987D01*
X612902Y1086920D01*
Y1084780D01*
X613456Y1082713D01*
X613471Y1082686D01*
X609837Y1079052D01*
X587094D01*
X553342Y1112804D01*
X552333Y1113478D01*
X551144Y1113714D01*
X549301D01*
X515559Y1147456D01*
X515574Y1147483D01*
X516128Y1149550D01*
Y1151690D01*
X515574Y1153757D01*
X514504Y1155611D01*
X514378Y1155737D01*
X514864Y1156910D01*
X519808D01*
X570913Y1105805D01*
X570745Y1105515D01*
X570166Y1103353D01*
X577760D01*
Y1110946D01*
X575598Y1110367D01*
X575308Y1110200D01*
X523292Y1162215D01*
X522284Y1162889D01*
X521095Y1163126D01*
X422325D01*
X421136Y1162889D01*
X420128Y1162215D01*
X416125Y1158213D01*
X412750D01*
Y1149173D01*
Y1140133D01*
X420520D01*
Y1146065D01*
X464980D01*
X478293Y1132752D01*
X478126Y1132461D01*
X477547Y1130300D01*
X485140D01*
Y1137893D01*
X482979Y1137314D01*
X482688Y1137147D01*
X468465Y1151370D01*
X467457Y1152044D01*
X466267Y1152280D01*
X420520D01*
Y1153818D01*
X423613Y1156910D01*
X501136D01*
X501622Y1155737D01*
X501496Y1155611D01*
X500426Y1153757D01*
X499872Y1151690D01*
Y1149550D01*
X500426Y1147483D01*
X501496Y1145629D01*
X503009Y1144116D01*
X504863Y1143046D01*
X506930Y1142492D01*
X509070D01*
X511137Y1143046D01*
X511164Y1143061D01*
X545816Y1108409D01*
X546824Y1107736D01*
X548013Y1107499D01*
X549857D01*
X560934Y1096421D01*
X560448Y1095248D01*
X560270D01*
X558203Y1094694D01*
X556349Y1093624D01*
X554836Y1092111D01*
X553766Y1090257D01*
X553758Y1090228D01*
X480839D01*
X440093Y1130974D01*
X439085Y1131647D01*
X437896Y1131884D01*
X412259D01*
X405280Y1138863D01*
X405768Y1140133D01*
X410210D01*
Y1149173D01*
Y1158213D01*
X406711D01*
X406185Y1159483D01*
X408206Y1161504D01*
X408285Y1161459D01*
X410390Y1160895D01*
X412570D01*
X414675Y1161459D01*
X416563Y1162549D01*
X418104Y1164090D01*
X419194Y1165977D01*
X419758Y1168083D01*
Y1170263D01*
X419194Y1172368D01*
X418104Y1174256D01*
X416563Y1175797D01*
X414675Y1176887D01*
X412570Y1177451D01*
X410390D01*
X408285Y1176887D01*
X406397Y1175797D01*
X404856Y1174256D01*
X403766Y1172368D01*
X403202Y1170263D01*
Y1168083D01*
X403766Y1165977D01*
X403811Y1165899D01*
X401223Y1163311D01*
X400050Y1163797D01*
Y1209040D01*
X517495D01*
X518301Y1208058D01*
X518187Y1207489D01*
Y1207304D01*
X518153Y1207123D01*
X518249Y1193031D01*
X518187Y1192884D01*
Y1192705D01*
X518153Y1192530D01*
X518187Y1192355D01*
Y1192176D01*
X518582Y1190194D01*
X518852Y1189541D01*
X519975Y1187860D01*
X520475Y1187360D01*
X522156Y1186237D01*
X522809Y1185967D01*
X524791Y1185573D01*
X524970D01*
X525145Y1185538D01*
X525320Y1185573D01*
X525499D01*
X525655Y1185637D01*
X604645D01*
X604801Y1185573D01*
X604980D01*
X605155Y1185538D01*
X605330Y1185573D01*
X605509D01*
X607491Y1185967D01*
X608144Y1186237D01*
X609825Y1187360D01*
X610325Y1187860D01*
X611448Y1189541D01*
X611718Y1190194D01*
X612113Y1192176D01*
Y1192361D01*
X612147Y1192542D01*
X612051Y1206634D01*
X612113Y1206781D01*
Y1206960D01*
X612147Y1207135D01*
X612113Y1207310D01*
Y1207489D01*
X611999Y1208058D01*
X612805Y1209040D01*
X693520D01*
Y1203960D01*
X702310D01*
X711100D01*
Y1209040D01*
X737870D01*
Y1076212D01*
D02*
G37*
G36*
X662729Y1049982D02*
X664640Y1044102D01*
X667446Y1038594D01*
X670122Y1034912D01*
X669545Y1033780D01*
X612095D01*
X612051Y1040264D01*
X612113Y1040411D01*
Y1040590D01*
X612147Y1040765D01*
X612113Y1040940D01*
Y1041119D01*
X611718Y1043101D01*
X611448Y1043754D01*
X610325Y1045435D01*
X609825Y1045935D01*
X608144Y1047058D01*
X607491Y1047328D01*
X605509Y1047722D01*
X605329D01*
X605153Y1047757D01*
X525653Y1047658D01*
X525499Y1047722D01*
X525320D01*
X525145Y1047757D01*
X524970Y1047722D01*
X524791D01*
X523509Y1047467D01*
X522475Y1048516D01*
X522732Y1049474D01*
Y1051614D01*
X522178Y1053681D01*
X522163Y1053708D01*
X524527Y1056072D01*
X661765D01*
X662729Y1049982D01*
D02*
G37*
%LPC*%
G36*
X711100Y1201420D02*
X703580D01*
Y1193900D01*
X711100D01*
Y1201420D01*
D02*
G37*
G36*
X701040D02*
X693520D01*
Y1193900D01*
X701040D01*
Y1201420D01*
D02*
G37*
G36*
X412570Y1197451D02*
X410390D01*
X408285Y1196887D01*
X406397Y1195797D01*
X404856Y1194255D01*
X403766Y1192368D01*
X403202Y1190262D01*
Y1188083D01*
X403766Y1185977D01*
X404856Y1184090D01*
X406397Y1182549D01*
X408285Y1181459D01*
X410390Y1180895D01*
X412570D01*
X414675Y1181459D01*
X416563Y1182549D01*
X418104Y1184090D01*
X419194Y1185977D01*
X419217Y1186065D01*
X492290D01*
X493013Y1185342D01*
X493243Y1184189D01*
X493916Y1183181D01*
X497361Y1179737D01*
X497332Y1179630D01*
Y1177490D01*
X497886Y1175423D01*
X498956Y1173569D01*
X500469Y1172056D01*
X502323Y1170986D01*
X504390Y1170432D01*
X506530D01*
X508597Y1170986D01*
X510451Y1172056D01*
X511964Y1173569D01*
X512635Y1174731D01*
X512949Y1174684D01*
X513842Y1174282D01*
Y1172410D01*
X514396Y1170343D01*
X515466Y1168489D01*
X516979Y1166976D01*
X518833Y1165906D01*
X520900Y1165352D01*
X523040D01*
X525107Y1165906D01*
X526961Y1166976D01*
X528474Y1168489D01*
X529544Y1170343D01*
X530098Y1172410D01*
Y1174182D01*
X720234D01*
X721286Y1172361D01*
X722781Y1170866D01*
X724611Y1169809D01*
X726653Y1169262D01*
X728767D01*
X730809Y1169809D01*
X732639Y1170866D01*
X734134Y1172361D01*
X735191Y1174191D01*
X735738Y1176233D01*
Y1178347D01*
X735191Y1180389D01*
X734134Y1182219D01*
X732639Y1183714D01*
X730809Y1184771D01*
X728767Y1185318D01*
X726653D01*
X724611Y1184771D01*
X722781Y1183714D01*
X721286Y1182219D01*
X720234Y1180398D01*
X528529D01*
X527340Y1180161D01*
X527006Y1179938D01*
X526961Y1179984D01*
X525107Y1181054D01*
X523040Y1181608D01*
X520900D01*
X518833Y1181054D01*
X516979Y1179984D01*
X515466Y1178471D01*
X514795Y1177309D01*
X514481Y1177356D01*
X513588Y1177758D01*
Y1179630D01*
X513034Y1181697D01*
X511964Y1183551D01*
X510451Y1185064D01*
X508597Y1186134D01*
X506530Y1186688D01*
X504390D01*
X502323Y1186134D01*
X500694Y1185194D01*
X499214Y1186673D01*
X498985Y1187825D01*
X498311Y1188834D01*
X495775Y1191370D01*
X494767Y1192044D01*
X493577Y1192280D01*
X419217D01*
X419194Y1192368D01*
X418104Y1194255D01*
X416563Y1195797D01*
X414675Y1196887D01*
X412570Y1197451D01*
D02*
G37*
G36*
X703367Y1159918D02*
X701253D01*
X699211Y1159371D01*
X697381Y1158314D01*
X695886Y1156819D01*
X694829Y1154989D01*
X694282Y1152947D01*
Y1150833D01*
X694829Y1148791D01*
X695886Y1146961D01*
X697381Y1145466D01*
X699211Y1144409D01*
X701253Y1143862D01*
X703367D01*
X705409Y1144409D01*
X707239Y1145466D01*
X708734Y1146961D01*
X709791Y1148791D01*
X710338Y1150833D01*
Y1152947D01*
X709791Y1154989D01*
X708734Y1156819D01*
X707239Y1158314D01*
X705409Y1159371D01*
X703367Y1159918D01*
D02*
G37*
G36*
X487680Y1137893D02*
Y1130300D01*
X495273D01*
X494694Y1132461D01*
X493524Y1134489D01*
X491869Y1136144D01*
X489841Y1137314D01*
X487680Y1137893D01*
D02*
G37*
G36*
X495273Y1127760D02*
X487680D01*
Y1120167D01*
X489841Y1120746D01*
X491869Y1121916D01*
X493524Y1123571D01*
X494694Y1125599D01*
X495273Y1127760D01*
D02*
G37*
G36*
X485140D02*
X477547D01*
X478126Y1125599D01*
X479296Y1123571D01*
X480951Y1121916D01*
X482979Y1120746D01*
X485140Y1120167D01*
Y1127760D01*
D02*
G37*
G36*
X730888Y1133478D02*
X711832D01*
Y1114422D01*
X730888D01*
Y1133478D01*
D02*
G37*
G36*
X697214D02*
X694706D01*
X692282Y1132829D01*
X690110Y1131574D01*
X688336Y1129800D01*
X687081Y1127628D01*
X686432Y1125204D01*
Y1122696D01*
X687081Y1120272D01*
X688336Y1118100D01*
X690110Y1116326D01*
X692282Y1115071D01*
X694706Y1114422D01*
X697214D01*
X699638Y1115071D01*
X701810Y1116326D01*
X703584Y1118100D01*
X704839Y1120272D01*
X705488Y1122696D01*
Y1125204D01*
X704839Y1127628D01*
X703584Y1129800D01*
X701810Y1131574D01*
X699638Y1132829D01*
X697214Y1133478D01*
D02*
G37*
G36*
X580300Y1110946D02*
Y1103353D01*
X587893D01*
X587314Y1105515D01*
X586143Y1107542D01*
X584488Y1109197D01*
X582461Y1110367D01*
X580300Y1110946D01*
D02*
G37*
G36*
X587893Y1100813D02*
X580300D01*
Y1093220D01*
X582461Y1093799D01*
X584488Y1094969D01*
X586143Y1096625D01*
X587314Y1098652D01*
X587893Y1100813D01*
D02*
G37*
G36*
X577760D02*
X570166D01*
X570745Y1098652D01*
X571916Y1096625D01*
X573571Y1094969D01*
X575598Y1093799D01*
X577760Y1093220D01*
Y1100813D01*
D02*
G37*
%LPD*%
D13*
X411480Y1149173D02*
X466267D01*
X486410Y1129030D01*
X502932Y1178560D02*
X505460D01*
X496114Y1185378D02*
Y1186636D01*
Y1185378D02*
X502932Y1178560D01*
X493577Y1189173D02*
X496114Y1186636D01*
X411480Y1189173D02*
X493577D01*
X521970Y1173480D02*
X524719D01*
X528529Y1177290D01*
X727710D01*
X585807Y1075944D02*
X611124D01*
X621030Y1085850D01*
X508000Y1150620D02*
X548013Y1110607D01*
X411480Y1149173D02*
X422325Y1160018D01*
X521095D02*
X579030Y1102083D01*
X422325Y1160018D02*
X521095D01*
X548013Y1110607D02*
X551144D01*
X585807Y1075944D01*
X479552Y1087120D02*
X561340D01*
X437896Y1128776D02*
X479552Y1087120D01*
X514604Y1050544D02*
X523240Y1059180D01*
X701040D01*
X410972Y1128776D02*
X437896D01*
X401828Y1137920D02*
X410972Y1128776D01*
X401828Y1137920D02*
Y1159521D01*
X411480Y1169173D01*
D31*
X701040Y1059180D02*
D03*
X439420Y1060450D02*
D03*
D32*
X411480Y1149173D02*
D03*
D33*
Y1169173D02*
D03*
Y1189173D02*
D03*
D39*
X721360Y1123950D02*
D03*
D40*
X695960D02*
D03*
D41*
X702310Y1151890D02*
D03*
X727710Y1177290D02*
D03*
D42*
X702310Y1202690D02*
D03*
D43*
X486410Y1129030D02*
D03*
X505460Y1178560D02*
D03*
X521970Y1173480D02*
D03*
X621030Y1085850D02*
D03*
X508000Y1150620D02*
D03*
X561340Y1087120D02*
D03*
X579030Y1102083D02*
D03*
X514604Y1050544D02*
D03*
M02*
