G04*
G04 #@! TF.GenerationSoftware,Altium Limited,Altium Designer,25.3.3 (18)*
G04*
G04 Layer_Color=8388736*
%FSLAX44Y44*%
%MOMM*%
G71*
G04*
G04 #@! TF.SameCoordinates,BFC568DA-C1B5-42DE-8167-96A376B3F609*
G04*
G04*
G04 #@! TF.FilePolarity,Negative*
G04*
G01*
G75*
%ADD15R,0.8549X0.9062*%
%ADD16R,0.9562X1.2062*%
%ADD17R,1.2062X0.9562*%
%ADD19R,0.7500X1.0000*%
%ADD21R,0.8587X0.9121*%
%ADD22R,0.6061X0.2568*%
G04:AMPARAMS|DCode=23|XSize=0.6061mm|YSize=0.2568mm|CornerRadius=0.1284mm|HoleSize=0mm|Usage=FLASHONLY|Rotation=0.000|XOffset=0mm|YOffset=0mm|HoleType=Round|Shape=RoundedRectangle|*
%AMROUNDEDRECTD23*
21,1,0.6061,0.0000,0,0,0.0*
21,1,0.3492,0.2568,0,0,0.0*
1,1,0.2568,0.1746,0.0000*
1,1,0.2568,-0.1746,0.0000*
1,1,0.2568,-0.1746,0.0000*
1,1,0.2568,0.1746,0.0000*
%
%ADD23ROUNDEDRECTD23*%
%ADD25R,1.0621X1.1350*%
%ADD26R,0.7587X0.8121*%
%ADD27R,1.1332X0.9932*%
G04:AMPARAMS|DCode=28|XSize=0.6532mm|YSize=1.5532mm|CornerRadius=0.1511mm|HoleSize=0mm|Usage=FLASHONLY|Rotation=90.000|XOffset=0mm|YOffset=0mm|HoleType=Round|Shape=RoundedRectangle|*
%AMROUNDEDRECTD28*
21,1,0.6532,1.2510,0,0,90.0*
21,1,0.3510,1.5532,0,0,90.0*
1,1,0.3022,0.6255,0.1755*
1,1,0.3022,0.6255,-0.1755*
1,1,0.3022,-0.6255,-0.1755*
1,1,0.3022,-0.6255,0.1755*
%
%ADD28ROUNDEDRECTD28*%
%ADD29R,1.0000X1.7000*%
%ADD30R,0.9032X1.0532*%
%ADD31C,7.5000*%
%ADD32R,1.3000X1.3000*%
%ADD33C,1.3000*%
%ADD34R,1.7532X1.7532*%
%ADD35C,1.7532*%
%ADD36C,1.4532*%
%ADD37R,1.4532X1.4532*%
%ADD38C,1.4732*%
D15*
X546100Y1065530D02*
D03*
X533587D02*
D03*
D16*
X579030Y1066800D02*
D03*
X599530D02*
D03*
X523060Y1155700D02*
D03*
X543560D02*
D03*
X459740Y1113790D02*
D03*
X480240D02*
D03*
X638900Y1153160D02*
D03*
X618400D02*
D03*
D17*
X444500Y1141730D02*
D03*
Y1162230D02*
D03*
X497840Y1043940D02*
D03*
Y1064440D02*
D03*
D19*
X621150Y1104899D02*
D03*
X636151D02*
D03*
X458349Y1196340D02*
D03*
X443349D02*
D03*
D21*
X588010Y1154430D02*
D03*
X572476D02*
D03*
D22*
X475611Y1160660D02*
D03*
D23*
Y1155660D02*
D03*
Y1150660D02*
D03*
Y1145660D02*
D03*
X494672D02*
D03*
Y1150660D02*
D03*
Y1155660D02*
D03*
Y1160660D02*
D03*
D25*
X635000Y1045210D02*
D03*
Y1061518D02*
D03*
D26*
X485306Y1196340D02*
D03*
X497840D02*
D03*
D27*
X533400Y1118870D02*
D03*
Y1102470D02*
D03*
X511810Y1118180D02*
D03*
Y1101780D02*
D03*
D28*
X600100Y1106581D02*
D03*
Y1113081D02*
D03*
Y1119581D02*
D03*
X555600Y1106581D02*
D03*
Y1113081D02*
D03*
Y1119581D02*
D03*
Y1126081D02*
D03*
X600100D02*
D03*
D29*
X485141Y1153160D02*
D03*
D30*
X621631Y1129030D02*
D03*
X633131D02*
D03*
D31*
X701040Y1059180D02*
D03*
X439420Y1060450D02*
D03*
D32*
X411480Y1149173D02*
D03*
D33*
Y1169173D02*
D03*
Y1189173D02*
D03*
D34*
X721360Y1123950D02*
D03*
D35*
X695960D02*
D03*
D36*
X702310Y1151890D02*
D03*
X727710Y1177290D02*
D03*
D37*
X702310Y1202690D02*
D03*
D38*
X486410Y1129030D02*
D03*
X505460Y1178560D02*
D03*
X521970Y1173480D02*
D03*
X621030Y1085850D02*
D03*
X508000Y1150620D02*
D03*
X561340Y1087120D02*
D03*
X579030Y1102083D02*
D03*
X514604Y1050544D02*
D03*
M02*
