G04*
G04 #@! TF.GenerationSoftware,Altium Limited,Altium Designer,25.3.3 (18)*
G04*
G04 Layer_Physical_Order=1*
G04 Layer_Color=255*
%FSLAX44Y44*%
%MOMM*%
G71*
G04*
G04 #@! TF.SameCoordinates,BFC568DA-C1B5-42DE-8167-96A376B3F609*
G04*
G04*
G04 #@! TF.FilePolarity,Positive*
G04*
G01*
G75*
%ADD13C,0.2540*%
%ADD15R,0.8549X0.9062*%
%ADD16R,0.9562X1.2062*%
%ADD17R,1.2062X0.9562*%
%ADD18R,0.9300X0.7900*%
%ADD19R,0.7500X1.0000*%
G04:AMPARAMS|DCode=20|XSize=0.45mm|YSize=1.35mm|CornerRadius=0.0495mm|HoleSize=0mm|Usage=FLASHONLY|Rotation=90.000|XOffset=0mm|YOffset=0mm|HoleType=Round|Shape=RoundedRectangle|*
%AMROUNDEDRECTD20*
21,1,0.4500,1.2510,0,0,90.0*
21,1,0.3510,1.3500,0,0,90.0*
1,1,0.0990,0.6255,0.1755*
1,1,0.0990,0.6255,-0.1755*
1,1,0.0990,-0.6255,-0.1755*
1,1,0.0990,-0.6255,0.1755*
%
%ADD20ROUNDEDRECTD20*%
%ADD21R,0.8587X0.9121*%
%ADD22R,0.6061X0.2568*%
G04:AMPARAMS|DCode=23|XSize=0.6061mm|YSize=0.2568mm|CornerRadius=0.1284mm|HoleSize=0mm|Usage=FLASHONLY|Rotation=0.000|XOffset=0mm|YOffset=0mm|HoleType=Round|Shape=RoundedRectangle|*
%AMROUNDEDRECTD23*
21,1,0.6061,0.0000,0,0,0.0*
21,1,0.3492,0.2568,0,0,0.0*
1,1,0.2568,0.1746,0.0000*
1,1,0.2568,-0.1746,0.0000*
1,1,0.2568,-0.1746,0.0000*
1,1,0.2568,0.1746,0.0000*
%
%ADD23ROUNDEDRECTD23*%
%ADD24R,0.7000X0.8500*%
%ADD25R,1.0621X1.1350*%
%ADD26R,0.7587X0.8121*%
%ADD29R,1.0000X1.7000*%
%ADD31C,7.5000*%
%ADD32R,1.3000X1.3000*%
%ADD33C,1.3000*%
%ADD39R,1.5500X1.5500*%
%ADD40C,1.5500*%
%ADD41C,1.2500*%
%ADD42R,1.2500X1.2500*%
%ADD43C,1.2700*%
D13*
X488858Y1129030D02*
X495717Y1135888D01*
X510868D01*
X486410Y1129030D02*
X488858D01*
X458724Y1130046D02*
X469900Y1141222D01*
X409702Y1130046D02*
X458724D01*
X469900Y1141222D02*
X493776D01*
X514516Y1180504D02*
X516890Y1182878D01*
X507404Y1180504D02*
X514516D01*
X494672Y1167360D02*
X505460Y1178148D01*
Y1178560D01*
X507404Y1180504D01*
X516890Y1182878D02*
X529082D01*
X494672Y1160660D02*
Y1167360D01*
X494677Y1155665D02*
X497845D01*
X513716Y1171536D02*
X520026D01*
X497845Y1155665D02*
X513716Y1171536D01*
X520026D02*
X521970Y1173480D01*
X494672Y1155660D02*
X494677Y1155665D01*
X529082Y1182878D02*
X543560Y1168400D01*
X487680Y1186942D02*
X492760D01*
X476504Y1175766D02*
X487680Y1186942D01*
X492760D02*
X497840Y1192022D01*
Y1196340D01*
X543560Y1163828D02*
Y1168400D01*
X476504Y1160660D02*
Y1175766D01*
X579030Y1113028D02*
X580644Y1114642D01*
Y1162039D02*
X618400D01*
X580644Y1114642D02*
Y1162039D01*
X621030Y1085850D02*
X635000Y1071880D01*
X621090Y1085910D02*
Y1104838D01*
X621150Y1104899D01*
X635000Y1061518D02*
Y1071880D01*
X621030Y1085850D02*
X621090Y1085910D01*
X507965Y1150655D02*
X508000Y1150620D01*
X494672Y1150660D02*
X494677Y1150655D01*
X507965D01*
X523060Y1148080D02*
Y1155700D01*
X510868Y1135888D02*
X523060Y1148080D01*
X533400Y1084005D02*
Y1102470D01*
X533587Y1065530D02*
Y1083818D01*
X533400Y1084005D02*
X533587Y1083818D01*
X549104Y1068534D02*
Y1074884D01*
X561340Y1087120D01*
X546100Y1065530D02*
X549104Y1068534D01*
X579030Y1102083D02*
Y1113028D01*
X475611Y1145660D02*
X485141D01*
X466344Y1196340D02*
X485306D01*
X458349D02*
X466344D01*
X493776Y1141222D02*
Y1145660D01*
X543560Y1155700D02*
Y1163828D01*
X599530Y1056640D02*
Y1058852D01*
X418923Y1141730D02*
X444500D01*
X411480Y1149173D02*
X418923Y1141730D01*
X579030Y1066800D02*
Y1102083D01*
X569729Y1106581D02*
X579030Y1102083D01*
X555600Y1106581D02*
X569729D01*
X497840Y1043940D02*
X508000D01*
X514604Y1050544D01*
X475611Y1160660D02*
X476504D01*
X511810Y1078410D02*
Y1101780D01*
X497840Y1064440D02*
X511810Y1078410D01*
X636151Y1104899D02*
Y1109980D01*
X678061Y1151890D01*
X702310D01*
X721360Y1123950D02*
Y1170940D01*
X727710Y1177290D01*
X466344Y1196340D02*
X487172Y1217168D01*
X629920D01*
X646938Y1200150D01*
Y1135888D02*
Y1200150D01*
X640080Y1129030D02*
X646938Y1135888D01*
X633131Y1129030D02*
X640080D01*
X600100Y1119581D02*
X609600D01*
X612648Y1122629D01*
Y1133094D01*
X619760Y1140206D01*
X632157D01*
X638900Y1146949D01*
Y1153160D01*
X546100Y1065530D02*
X553048D01*
X562356Y1056222D01*
X596900D01*
X599530Y1058852D01*
Y1066800D01*
X525899Y1102470D02*
X533400D01*
X511810Y1116560D02*
X525899Y1102470D01*
X511810Y1116560D02*
Y1118180D01*
X548185Y1113081D02*
X555600D01*
X546354Y1111250D02*
X548185Y1113081D01*
X523226Y1111250D02*
X546354D01*
X522309Y1112167D02*
X523226Y1111250D01*
X522309Y1112167D02*
Y1121029D01*
X518160Y1125178D02*
X522309Y1121029D01*
X503936Y1125178D02*
X518160D01*
X503936Y1104900D02*
Y1125178D01*
Y1104900D02*
X507056Y1101780D01*
X511810D01*
X638900Y1153160D02*
Y1163320D01*
X633312Y1168908D02*
X638900Y1163320D01*
X548640Y1168908D02*
X633312D01*
X543560Y1163828D02*
X548640Y1168908D01*
X600100Y1113081D02*
X621430D01*
X621631Y1113282D01*
Y1129030D01*
X618400Y1153160D02*
Y1162039D01*
X555600Y1126081D02*
X565717D01*
X572476Y1132840D01*
Y1154430D01*
X588010Y1129891D02*
Y1154430D01*
Y1129891D02*
X591820Y1126081D01*
X600100D01*
X461892Y1145660D02*
X475611D01*
X457962Y1141730D02*
X461892Y1145660D01*
X444500Y1141730D02*
X457962D01*
X485141Y1145660D02*
Y1153160D01*
X493776Y1145660D02*
X494672D01*
X401828Y1137920D02*
X409702Y1130046D01*
X401828Y1137920D02*
Y1173480D01*
X407162Y1178814D01*
X416560D01*
X436551Y1198805D01*
Y1204389D01*
X450342D01*
Y1180980D02*
Y1204389D01*
Y1180980D02*
X470662Y1160660D01*
X475611D01*
X444500Y1162230D02*
X456806D01*
X468376Y1150660D01*
X475611D01*
X480240Y1113790D02*
X485597D01*
X501303Y1129496D01*
X528320D01*
X533400Y1124416D01*
Y1118870D02*
Y1124416D01*
X626618Y1045210D02*
X635000D01*
X619760Y1052068D02*
X626618Y1045210D01*
X604102Y1052068D02*
X619760D01*
X599530Y1056640D02*
X604102Y1052068D01*
X459740Y1080770D02*
Y1113790D01*
X439420Y1060450D02*
X459740Y1080770D01*
X475611Y1155660D02*
Y1160660D01*
X544779Y1119581D02*
X555600D01*
X544068Y1118870D02*
X544779Y1119581D01*
X533400Y1118870D02*
X544068D01*
X443349Y1179711D02*
Y1196340D01*
Y1179711D02*
X444500Y1178560D01*
Y1162230D02*
Y1178560D01*
X600100Y1086928D02*
Y1106581D01*
X599530Y1086358D02*
X600100Y1086928D01*
X599530Y1066800D02*
Y1086358D01*
D15*
X546100Y1065530D02*
D03*
X533587D02*
D03*
D16*
X579030Y1066800D02*
D03*
X599530D02*
D03*
X523060Y1155700D02*
D03*
X543560D02*
D03*
X459740Y1113790D02*
D03*
X480240D02*
D03*
X638900Y1153160D02*
D03*
X618400D02*
D03*
D17*
X444500Y1141730D02*
D03*
Y1162230D02*
D03*
X497840Y1043940D02*
D03*
Y1064440D02*
D03*
D18*
X533400Y1118870D02*
D03*
Y1102470D02*
D03*
X511810Y1118180D02*
D03*
Y1101780D02*
D03*
D19*
X621150Y1104899D02*
D03*
X636151D02*
D03*
X458349Y1196340D02*
D03*
X443349D02*
D03*
D20*
X600100Y1106581D02*
D03*
Y1113081D02*
D03*
Y1119581D02*
D03*
X555600Y1106581D02*
D03*
Y1113081D02*
D03*
Y1119581D02*
D03*
Y1126081D02*
D03*
X600100D02*
D03*
D21*
X588010Y1154430D02*
D03*
X572476D02*
D03*
D22*
X475611Y1160660D02*
D03*
D23*
Y1155660D02*
D03*
Y1150660D02*
D03*
Y1145660D02*
D03*
X494672D02*
D03*
Y1150660D02*
D03*
Y1155660D02*
D03*
Y1160660D02*
D03*
D24*
X621631Y1129030D02*
D03*
X633131D02*
D03*
D25*
X635000Y1045210D02*
D03*
Y1061518D02*
D03*
D26*
X485306Y1196340D02*
D03*
X497840D02*
D03*
D29*
X485141Y1153160D02*
D03*
D31*
X701040Y1059180D02*
D03*
X439420Y1060450D02*
D03*
D32*
X411480Y1149173D02*
D03*
D33*
Y1169173D02*
D03*
Y1189173D02*
D03*
D39*
X721360Y1123950D02*
D03*
D40*
X695960D02*
D03*
D41*
X702310Y1151890D02*
D03*
X727710Y1177290D02*
D03*
D42*
X702310Y1202690D02*
D03*
D43*
X486410Y1129030D02*
D03*
X505460Y1178560D02*
D03*
X521970Y1173480D02*
D03*
X621030Y1085850D02*
D03*
X508000Y1150620D02*
D03*
X561340Y1087120D02*
D03*
X579030Y1102083D02*
D03*
X514604Y1050544D02*
D03*
M02*
