G04*
G04 #@! TF.GenerationSoftware,Altium Limited,Altium Designer,25.3.3 (18)*
G04*
G04 Layer_Color=8421504*
%FSLAX44Y44*%
%MOMM*%
G71*
G04*
G04 #@! TF.SameCoordinates,BFC568DA-C1B5-42DE-8167-96A376B3F609*
G04*
G04*
G04 #@! TF.FilePolarity,Positive*
G04*
G01*
G75*
%ADD14R,0.5458X1.2458*%
%ADD15R,0.8549X0.9062*%
%ADD16R,0.9562X1.2062*%
%ADD17R,1.2062X0.9562*%
%ADD18R,0.9300X0.7900*%
%ADD19R,0.7500X1.0000*%
G04:AMPARAMS|DCode=20|XSize=0.45mm|YSize=1.35mm|CornerRadius=0.0495mm|HoleSize=0mm|Usage=FLASHONLY|Rotation=90.000|XOffset=0mm|YOffset=0mm|HoleType=Round|Shape=RoundedRectangle|*
%AMROUNDEDRECTD20*
21,1,0.4500,1.2510,0,0,90.0*
21,1,0.3510,1.3500,0,0,90.0*
1,1,0.0990,0.6255,0.1755*
1,1,0.0990,0.6255,-0.1755*
1,1,0.0990,-0.6255,-0.1755*
1,1,0.0990,-0.6255,0.1755*
%
%ADD20ROUNDEDRECTD20*%
%ADD21R,0.8587X0.9121*%
%ADD22R,0.6061X0.2568*%
G04:AMPARAMS|DCode=23|XSize=0.6061mm|YSize=0.2568mm|CornerRadius=0.1284mm|HoleSize=0mm|Usage=FLASHONLY|Rotation=0.000|XOffset=0mm|YOffset=0mm|HoleType=Round|Shape=RoundedRectangle|*
%AMROUNDEDRECTD23*
21,1,0.6061,0.0000,0,0,0.0*
21,1,0.3492,0.2568,0,0,0.0*
1,1,0.2568,0.1746,0.0000*
1,1,0.2568,-0.1746,0.0000*
1,1,0.2568,-0.1746,0.0000*
1,1,0.2568,0.1746,0.0000*
%
%ADD23ROUNDEDRECTD23*%
%ADD24R,0.7000X0.8500*%
%ADD25R,1.0621X1.1350*%
%ADD26R,0.7587X0.8121*%
D14*
X485141Y1153157D02*
D03*
D15*
X546100Y1065530D02*
D03*
X533587D02*
D03*
D16*
X579030Y1066800D02*
D03*
X599530D02*
D03*
X523060Y1155700D02*
D03*
X543560D02*
D03*
X459740Y1113790D02*
D03*
X480240D02*
D03*
X638900Y1153160D02*
D03*
X618400D02*
D03*
D17*
X444500Y1141730D02*
D03*
Y1162230D02*
D03*
X497840Y1043940D02*
D03*
Y1064440D02*
D03*
D18*
X533400Y1118870D02*
D03*
Y1102470D02*
D03*
X511810Y1118180D02*
D03*
Y1101780D02*
D03*
D19*
X621150Y1104899D02*
D03*
X636151D02*
D03*
X458349Y1196340D02*
D03*
X443349D02*
D03*
D20*
X600100Y1106581D02*
D03*
Y1113081D02*
D03*
Y1119581D02*
D03*
X555600Y1106581D02*
D03*
Y1113081D02*
D03*
Y1119581D02*
D03*
Y1126081D02*
D03*
X600100D02*
D03*
D21*
X588010Y1154430D02*
D03*
X572476D02*
D03*
D22*
X475611Y1160660D02*
D03*
D23*
Y1155660D02*
D03*
Y1150660D02*
D03*
Y1145660D02*
D03*
X494672D02*
D03*
Y1150660D02*
D03*
Y1155660D02*
D03*
Y1160660D02*
D03*
D24*
X621631Y1129030D02*
D03*
X633131D02*
D03*
D25*
X635000Y1045210D02*
D03*
Y1061518D02*
D03*
D26*
X485306Y1196340D02*
D03*
X497840D02*
D03*
M02*
