G04*
G04 #@! TF.GenerationSoftware,Altium Limited,Altium Designer,25.3.3 (18)*
G04*
G04 Layer_Color=2752767*
%FSLAX44Y44*%
%MOMM*%
G71*
G04*
G04 #@! TF.SameCoordinates,BFC568DA-C1B5-42DE-8167-96A376B3F609*
G04*
G04*
G04 #@! TF.FilePolarity,Positive*
G04*
G01*
G75*
%ADD12C,0.1270*%
%ADD46C,0.1693*%
D12*
X701040Y1054100D02*
X703580Y1056640D01*
X706120D01*
X703580Y1059180D01*
X706120Y1061720D01*
X703580D01*
X701040Y1064260D01*
X698500Y1061720D01*
X695960D01*
X698500Y1059180D01*
X695960Y1056640D01*
X698500D01*
X701040Y1054100D01*
X406400Y1144093D02*
Y1154253D01*
X416560D01*
Y1144093D01*
X406400D01*
Y1164093D02*
Y1174253D01*
X416560D01*
Y1164093D01*
X406400D01*
Y1184093D02*
Y1194253D01*
X416560D01*
Y1184093D01*
X406400D01*
X439420Y1055370D02*
X441960Y1057910D01*
X444500D01*
X441960Y1060450D01*
X444500Y1062990D01*
X441960D01*
X439420Y1065530D01*
X436880Y1062990D01*
X434340D01*
X436880Y1060450D01*
X434340Y1057910D01*
X436880D01*
X439420Y1055370D01*
X721360Y1118870D02*
X716280Y1129030D01*
X726440D01*
X721360Y1118870D01*
X695960D02*
X690880Y1129030D01*
X701040D01*
X695960Y1118870D01*
X481330Y1123950D02*
X483870Y1129030D01*
X481330Y1134110D01*
X486410Y1131570D01*
X491490Y1134110D01*
X488950Y1129030D01*
X491490Y1123950D01*
X486410Y1126490D01*
X481330Y1123950D01*
X500380Y1173480D02*
X502920Y1178560D01*
X500380Y1183640D01*
X505460Y1181100D01*
X510540Y1183640D01*
X508000Y1178560D01*
X510540Y1173480D01*
X505460Y1176020D01*
X500380Y1173480D01*
X516890Y1168400D02*
X519430Y1173480D01*
X516890Y1178560D01*
X521970Y1176020D01*
X527050Y1178560D01*
X524510Y1173480D01*
X527050Y1168400D01*
X521970Y1170940D01*
X516890Y1168400D01*
X615950Y1080770D02*
X618490Y1085850D01*
X615950Y1090930D01*
X621030Y1088390D01*
X626110Y1090930D01*
X623570Y1085850D01*
X626110Y1080770D01*
X621030Y1083310D01*
X615950Y1080770D01*
X502920Y1145540D02*
X505460Y1150620D01*
X502920Y1155700D01*
X508000Y1153160D01*
X513080Y1155700D01*
X510540Y1150620D01*
X513080Y1145540D01*
X508000Y1148080D01*
X502920Y1145540D01*
X556260Y1082040D02*
X558800Y1087120D01*
X556260Y1092200D01*
X561340Y1089660D01*
X566420Y1092200D01*
X563880Y1087120D01*
X566420Y1082040D01*
X561340Y1084580D01*
X556260Y1082040D01*
X573950Y1097003D02*
X576490Y1102083D01*
X573950Y1107163D01*
X579030Y1104623D01*
X584110Y1107163D01*
X581570Y1102083D01*
X584110Y1097003D01*
X579030Y1099543D01*
X573950Y1097003D01*
X509524Y1045464D02*
X512064Y1050544D01*
X509524Y1055624D01*
X514604Y1053084D01*
X519684Y1055624D01*
X517144Y1050544D01*
X519684Y1045464D01*
X514604Y1048004D01*
X509524Y1045464D01*
D46*
X707390Y1151890D02*
G03*
X707390Y1151890I-5080J0D01*
G01*
X732790Y1177290D02*
G03*
X732790Y1177290I-5080J0D01*
G01*
X707390Y1202690D02*
G03*
X707390Y1202690I-5080J0D01*
G01*
M02*
