G04*
G04 #@! TF.GenerationSoftware,Altium Limited,Altium Designer,25.3.3 (18)*
G04*
G04 Layer_Color=16711935*
%FSLAX44Y44*%
%MOMM*%
G71*
G04*
G04 #@! TF.SameCoordinates,BFC568DA-C1B5-42DE-8167-96A376B3F609*
G04*
G04*
G04 #@! TF.FilePolarity,Positive*
G04*
G01*
G75*
%ADD11C,0.2000*%
%ADD12C,0.1270*%
%ADD44C,0.1000*%
D11*
X400480Y1138173D02*
Y1200173D01*
X422480D01*
Y1138173D02*
Y1200173D01*
X400480Y1138173D02*
X422480D01*
X531843Y1061530D02*
X547844D01*
X531843D02*
Y1069530D01*
X547844D01*
Y1061530D02*
Y1069530D01*
X581280Y1070800D02*
X597280D01*
Y1062800D02*
Y1070800D01*
X581280Y1062800D02*
X597280D01*
X581280D02*
Y1070800D01*
X440500Y1143980D02*
Y1159980D01*
X448500D01*
Y1143980D02*
Y1159980D01*
X440500Y1143980D02*
X448500D01*
X493840Y1046190D02*
Y1062190D01*
X501840D01*
Y1046190D02*
Y1062190D01*
X493840Y1046190D02*
X501840D01*
X620401Y1109648D02*
X636900D01*
Y1100148D02*
Y1109648D01*
X620401Y1100148D02*
X636900D01*
X620401D02*
Y1109648D01*
X572243Y1150430D02*
X588243D01*
X572243D02*
Y1158430D01*
X588243D01*
Y1150430D02*
Y1158430D01*
X475141Y1163160D02*
X495141D01*
Y1143160D02*
Y1163160D01*
X475141Y1143160D02*
X495141D01*
X475141D02*
Y1163160D01*
X630750Y1045614D02*
Y1061114D01*
X639250D01*
Y1045614D02*
Y1061114D01*
X630750Y1045614D02*
X639250D01*
X525310Y1159700D02*
X541310D01*
Y1151700D02*
Y1159700D01*
X525310Y1151700D02*
X541310D01*
X525310D02*
Y1159700D01*
X461990Y1117790D02*
X477990D01*
Y1109790D02*
Y1117790D01*
X461990Y1109790D02*
X477990D01*
X461990D02*
Y1117790D01*
X442600Y1191590D02*
X459099D01*
X442600D02*
Y1201090D01*
X459099D01*
Y1191590D02*
Y1201090D01*
X620650Y1149160D02*
X636650D01*
X620650D02*
Y1157160D01*
X636650D01*
Y1149160D02*
Y1157160D01*
X483573Y1200340D02*
X499573D01*
Y1192340D02*
Y1200340D01*
X483573Y1192340D02*
X499573D01*
X483573D02*
Y1200340D01*
D12*
X528900Y1102170D02*
X537900D01*
X528900Y1119170D02*
X537900D01*
X528900Y1102170D02*
Y1119170D01*
X537900Y1102170D02*
Y1119170D01*
X507310Y1101480D02*
X516310D01*
X507310Y1118480D02*
X516310D01*
X507310Y1101480D02*
Y1118480D01*
X516310Y1101480D02*
Y1118480D01*
D44*
X681360Y1111250D02*
Y1136650D01*
X735960D01*
Y1111250D02*
Y1136650D01*
X681360Y1111250D02*
X735960D01*
X562350Y1100831D02*
Y1131831D01*
X593350Y1100831D02*
Y1131831D01*
X562350D02*
X593350D01*
X562350Y1100831D02*
X593350D01*
X619131Y1133780D02*
X635631D01*
X619131Y1124280D02*
X635631D01*
X619131D02*
Y1133780D01*
X635631Y1124280D02*
Y1133780D01*
X736910Y1144290D02*
Y1210290D01*
X667010Y1144290D02*
Y1210290D01*
X736910D01*
X667010Y1144290D02*
X736910D01*
M02*
