G04*
G04 #@! TF.GenerationSoftware,Altium Limited,Altium Designer,25.3.3 (18)*
G04*
G04 Layer_Color=0*
%FSLAX44Y44*%
%MOMM*%
G71*
G04*
G04 #@! TF.SameCoordinates,BFC568DA-C1B5-42DE-8167-96A376B3F609*
G04*
G04*
G04 #@! TF.FilePolarity,Positive*
G04*
G01*
G75*
%ADD44C,0.1000*%
D44*
X411480Y1164173D02*
Y1174173D01*
X406480Y1169173D02*
X416480D01*
X534844Y1065530D02*
X544844D01*
X539843Y1060530D02*
Y1070530D01*
X584280Y1066800D02*
X594280D01*
X589280Y1061800D02*
Y1071800D01*
X444500Y1146980D02*
Y1156980D01*
X439500Y1151980D02*
X449500D01*
X497840Y1049190D02*
Y1059190D01*
X492840Y1054190D02*
X502840D01*
X623650Y1104899D02*
X633650D01*
X628651Y1099898D02*
Y1109898D01*
X575243Y1154430D02*
X585243D01*
X580243Y1149430D02*
Y1159430D01*
X480141Y1153160D02*
X490141D01*
X485141Y1148160D02*
Y1158160D01*
X635000Y1048364D02*
Y1058364D01*
X630000Y1053364D02*
X640000D01*
X528310Y1155700D02*
X538310D01*
X533310Y1150700D02*
Y1160700D01*
X464990Y1113790D02*
X474990D01*
X469990Y1108790D02*
Y1118790D01*
X445849Y1196340D02*
X455849D01*
X450849Y1191340D02*
Y1201340D01*
X623650Y1153160D02*
X633650D01*
X628650Y1148160D02*
Y1158160D01*
X486573Y1196340D02*
X496573D01*
X491573Y1191340D02*
Y1201340D01*
M02*
