G04*
G04 #@! TF.GenerationSoftware,Altium Limited,Altium Designer,25.3.3 (18)*
G04*
G04 Layer_Color=16711935*
%FSLAX44Y44*%
%MOMM*%
G71*
G04*
G04 #@! TF.SameCoordinates,BFC568DA-C1B5-42DE-8167-96A376B3F609*
G04*
G04*
G04 #@! TF.FilePolarity,Positive*
G04*
G01*
G75*
%ADD11C,0.2000*%
G36*
X413251Y1175932D02*
X408250D01*
X408259Y1175923D01*
X408296Y1175876D01*
X408351Y1175821D01*
X408416Y1175728D01*
X408499Y1175627D01*
X408592Y1175497D01*
X408693Y1175349D01*
X408795Y1175183D01*
Y1175174D01*
X408804Y1175164D01*
X408841Y1175109D01*
X408887Y1175016D01*
X408943Y1174905D01*
X409008Y1174776D01*
X409072Y1174637D01*
X409137Y1174499D01*
X409193Y1174360D01*
X408434D01*
Y1174369D01*
X408416Y1174388D01*
X408407Y1174425D01*
X408379Y1174471D01*
X408351Y1174527D01*
X408314Y1174591D01*
X408222Y1174748D01*
X408120Y1174933D01*
X407991Y1175118D01*
X407843Y1175312D01*
X407686Y1175507D01*
X407676Y1175516D01*
X407667Y1175525D01*
X407639Y1175553D01*
X407612Y1175590D01*
X407519Y1175673D01*
X407408Y1175784D01*
X407279Y1175895D01*
X407131Y1176015D01*
X406983Y1176117D01*
X406826Y1176209D01*
Y1176718D01*
X413251D01*
Y1175932D01*
D02*
G37*
G36*
X411421Y1172687D02*
X411495D01*
X411670Y1172668D01*
X411874Y1172650D01*
X412086Y1172613D01*
X412281Y1172557D01*
X412466Y1172492D01*
X412475D01*
X412484Y1172483D01*
X412540Y1172456D01*
X412613Y1172409D01*
X412715Y1172345D01*
X412817Y1172252D01*
X412928Y1172150D01*
X413039Y1172021D01*
X413131Y1171873D01*
X413140Y1171854D01*
X413168Y1171799D01*
X413205Y1171716D01*
X413242Y1171596D01*
X413288Y1171448D01*
X413325Y1171281D01*
X413353Y1171096D01*
X413362Y1170893D01*
Y1170810D01*
X413353Y1170754D01*
X413344Y1170680D01*
X413335Y1170606D01*
X413298Y1170412D01*
X413242Y1170209D01*
X413159Y1169996D01*
X413103Y1169885D01*
X413039Y1169783D01*
X412965Y1169691D01*
X412882Y1169599D01*
X412872Y1169589D01*
X412863Y1169580D01*
X412826Y1169562D01*
X412789Y1169534D01*
X412743Y1169497D01*
X412678Y1169460D01*
X412604Y1169423D01*
X412521Y1169377D01*
X412429Y1169340D01*
X412318Y1169303D01*
X412207Y1169266D01*
X412077Y1169229D01*
X411939Y1169210D01*
X411781Y1169183D01*
X411624Y1169173D01*
X411449D01*
X411338Y1169941D01*
X411347D01*
X411365D01*
X411402D01*
X411458Y1169950D01*
X411513Y1169959D01*
X411578D01*
X411735Y1169987D01*
X411902Y1170015D01*
X412068Y1170070D01*
X412216Y1170126D01*
X412281Y1170163D01*
X412336Y1170209D01*
X412345Y1170218D01*
X412373Y1170255D01*
X412419Y1170311D01*
X412466Y1170385D01*
X412521Y1170486D01*
X412558Y1170597D01*
X412595Y1170736D01*
X412604Y1170884D01*
Y1170939D01*
X412595Y1170995D01*
X412586Y1171078D01*
X412567Y1171161D01*
X412549Y1171254D01*
X412512Y1171346D01*
X412466Y1171438D01*
X412456Y1171448D01*
X412438Y1171475D01*
X412401Y1171512D01*
X412364Y1171568D01*
X412299Y1171614D01*
X412234Y1171670D01*
X412160Y1171716D01*
X412068Y1171753D01*
X412059D01*
X412022Y1171771D01*
X411957Y1171780D01*
X411874Y1171799D01*
X411763Y1171817D01*
X411624Y1171827D01*
X411458Y1171845D01*
X411264D01*
X406853D01*
Y1172696D01*
X411217D01*
X411227D01*
X411254D01*
X411291D01*
X411347D01*
X411421Y1172687D01*
D02*
G37*
G36*
X531828Y1065521D02*
X531902Y1065512D01*
X531985Y1065502D01*
X532077Y1065484D01*
X532179Y1065465D01*
X532401Y1065410D01*
X532632Y1065317D01*
X532752Y1065262D01*
X532863Y1065197D01*
X532974Y1065114D01*
X533085Y1065031D01*
X533094Y1065022D01*
X533113Y1065003D01*
X533140Y1064975D01*
X533168Y1064938D01*
X533214Y1064892D01*
X533261Y1064827D01*
X533316Y1064763D01*
X533372Y1064679D01*
X533427Y1064587D01*
X533483Y1064495D01*
X533584Y1064273D01*
X533667Y1064014D01*
X533695Y1063875D01*
X533714Y1063727D01*
X532928Y1063625D01*
Y1063635D01*
X532919Y1063653D01*
X532909Y1063690D01*
X532900Y1063736D01*
X532891Y1063792D01*
X532872Y1063857D01*
X532826Y1063995D01*
X532761Y1064162D01*
X532678Y1064319D01*
X532586Y1064467D01*
X532475Y1064596D01*
X532456Y1064605D01*
X532419Y1064642D01*
X532345Y1064689D01*
X532253Y1064735D01*
X532142Y1064790D01*
X532003Y1064837D01*
X531846Y1064874D01*
X531680Y1064883D01*
X531624D01*
X531587Y1064874D01*
X531485Y1064864D01*
X531356Y1064837D01*
X531208Y1064790D01*
X531051Y1064726D01*
X530894Y1064633D01*
X530746Y1064504D01*
X530727Y1064485D01*
X530681Y1064430D01*
X530626Y1064347D01*
X530552Y1064236D01*
X530478Y1064097D01*
X530422Y1063940D01*
X530376Y1063755D01*
X530358Y1063551D01*
Y1063542D01*
Y1063524D01*
Y1063496D01*
X530367Y1063459D01*
X530376Y1063357D01*
X530404Y1063237D01*
X530441Y1063089D01*
X530505Y1062941D01*
X530598Y1062793D01*
X530718Y1062655D01*
X530737Y1062636D01*
X530783Y1062599D01*
X530857Y1062544D01*
X530959Y1062479D01*
X531088Y1062414D01*
X531245Y1062359D01*
X531421Y1062322D01*
X531615Y1062303D01*
X531698D01*
X531763Y1062313D01*
X531846Y1062322D01*
X531939Y1062340D01*
X532049Y1062359D01*
X532170Y1062387D01*
X532077Y1061693D01*
X532031D01*
X531994Y1061702D01*
X531874D01*
X531772Y1061684D01*
X531652Y1061665D01*
X531513Y1061638D01*
X531356Y1061591D01*
X531208Y1061527D01*
X531051Y1061443D01*
X531042D01*
X531032Y1061434D01*
X530986Y1061397D01*
X530922Y1061333D01*
X530848Y1061249D01*
X530774Y1061129D01*
X530709Y1060991D01*
X530663Y1060833D01*
X530644Y1060741D01*
Y1060639D01*
Y1060630D01*
Y1060621D01*
Y1060565D01*
X530663Y1060491D01*
X530681Y1060389D01*
X530718Y1060279D01*
X530764Y1060158D01*
X530838Y1060038D01*
X530940Y1059927D01*
X530949Y1059918D01*
X530995Y1059881D01*
X531060Y1059835D01*
X531143Y1059779D01*
X531254Y1059733D01*
X531384Y1059687D01*
X531532Y1059650D01*
X531698Y1059641D01*
X531772D01*
X531855Y1059659D01*
X531966Y1059678D01*
X532086Y1059715D01*
X532207Y1059761D01*
X532336Y1059835D01*
X532456Y1059927D01*
X532466Y1059937D01*
X532503Y1059983D01*
X532558Y1060047D01*
X532623Y1060140D01*
X532687Y1060260D01*
X532752Y1060408D01*
X532808Y1060584D01*
X532845Y1060787D01*
X533630Y1060648D01*
Y1060639D01*
X533621Y1060611D01*
X533612Y1060574D01*
X533603Y1060519D01*
X533584Y1060454D01*
X533557Y1060380D01*
X533501Y1060205D01*
X533409Y1060001D01*
X533298Y1059798D01*
X533159Y1059604D01*
X532983Y1059428D01*
X532974Y1059419D01*
X532956Y1059409D01*
X532928Y1059391D01*
X532891Y1059363D01*
X532845Y1059326D01*
X532780Y1059289D01*
X532715Y1059252D01*
X532632Y1059206D01*
X532447Y1059132D01*
X532234Y1059058D01*
X531985Y1059012D01*
X531855Y1058993D01*
X531624D01*
X531522Y1059003D01*
X531402Y1059021D01*
X531254Y1059049D01*
X531088Y1059095D01*
X530922Y1059151D01*
X530755Y1059225D01*
X530746D01*
X530737Y1059234D01*
X530681Y1059262D01*
X530598Y1059317D01*
X530505Y1059382D01*
X530395Y1059474D01*
X530284Y1059576D01*
X530173Y1059696D01*
X530080Y1059835D01*
X530071Y1059853D01*
X530043Y1059900D01*
X530006Y1059983D01*
X529960Y1060084D01*
X529914Y1060205D01*
X529877Y1060343D01*
X529849Y1060500D01*
X529840Y1060658D01*
Y1060676D01*
Y1060732D01*
X529849Y1060806D01*
X529868Y1060907D01*
X529895Y1061028D01*
X529941Y1061157D01*
X529997Y1061286D01*
X530071Y1061416D01*
X530080Y1061434D01*
X530108Y1061471D01*
X530163Y1061536D01*
X530237Y1061610D01*
X530330Y1061693D01*
X530441Y1061786D01*
X530570Y1061869D01*
X530727Y1061952D01*
X530718D01*
X530700Y1061961D01*
X530672Y1061971D01*
X530635Y1061980D01*
X530533Y1062017D01*
X530404Y1062072D01*
X530256Y1062146D01*
X530108Y1062239D01*
X529969Y1062359D01*
X529840Y1062497D01*
X529831Y1062516D01*
X529794Y1062571D01*
X529738Y1062664D01*
X529683Y1062784D01*
X529627Y1062932D01*
X529572Y1063108D01*
X529535Y1063311D01*
X529525Y1063533D01*
Y1063542D01*
Y1063570D01*
Y1063616D01*
X529535Y1063672D01*
X529544Y1063746D01*
X529562Y1063829D01*
X529581Y1063921D01*
X529599Y1064023D01*
X529673Y1064245D01*
X529729Y1064365D01*
X529784Y1064476D01*
X529858Y1064596D01*
X529941Y1064716D01*
X530034Y1064837D01*
X530145Y1064948D01*
X530154Y1064957D01*
X530173Y1064975D01*
X530210Y1065003D01*
X530256Y1065040D01*
X530311Y1065086D01*
X530385Y1065133D01*
X530468Y1065188D01*
X530570Y1065234D01*
X530672Y1065290D01*
X530792Y1065345D01*
X530912Y1065391D01*
X531051Y1065438D01*
X531199Y1065475D01*
X531356Y1065502D01*
X531513Y1065521D01*
X531689Y1065530D01*
X531772D01*
X531828Y1065521D01*
D02*
G37*
G36*
X539843Y1059021D02*
X536876D01*
X536802Y1059030D01*
X536718D01*
X536524Y1059040D01*
X536321Y1059067D01*
X536099Y1059095D01*
X535896Y1059141D01*
X535794Y1059169D01*
X535711Y1059197D01*
X535701D01*
X535692Y1059206D01*
X535637Y1059234D01*
X535554Y1059271D01*
X535452Y1059335D01*
X535341Y1059419D01*
X535221Y1059530D01*
X535110Y1059659D01*
X534999Y1059807D01*
Y1059816D01*
X534990Y1059826D01*
X534953Y1059881D01*
X534916Y1059974D01*
X534860Y1060094D01*
X534814Y1060232D01*
X534768Y1060399D01*
X534740Y1060574D01*
X534731Y1060769D01*
Y1060778D01*
Y1060796D01*
Y1060833D01*
X534740Y1060880D01*
Y1060944D01*
X534749Y1061009D01*
X534786Y1061166D01*
X534842Y1061351D01*
X534916Y1061545D01*
X535027Y1061739D01*
X535101Y1061832D01*
X535174Y1061924D01*
X535184Y1061934D01*
X535193Y1061943D01*
X535221Y1061971D01*
X535258Y1061998D01*
X535304Y1062035D01*
X535359Y1062072D01*
X535433Y1062118D01*
X535507Y1062174D01*
X535600Y1062220D01*
X535701Y1062266D01*
X535812Y1062322D01*
X535933Y1062368D01*
X536071Y1062405D01*
X536210Y1062451D01*
X536367Y1062479D01*
X536534Y1062507D01*
X536515Y1062516D01*
X536478Y1062534D01*
X536423Y1062571D01*
X536349Y1062608D01*
X536182Y1062710D01*
X536099Y1062775D01*
X536025Y1062830D01*
X536007Y1062849D01*
X535960Y1062895D01*
X535886Y1062969D01*
X535794Y1063062D01*
X535692Y1063191D01*
X535572Y1063330D01*
X535452Y1063496D01*
X535322Y1063681D01*
X534222Y1065419D01*
X535276D01*
X536118Y1064088D01*
Y1064079D01*
X536136Y1064060D01*
X536155Y1064032D01*
X536182Y1063995D01*
X536247Y1063894D01*
X536330Y1063764D01*
X536432Y1063625D01*
X536534Y1063478D01*
X536635Y1063339D01*
X536728Y1063209D01*
X536737Y1063200D01*
X536765Y1063163D01*
X536811Y1063108D01*
X536876Y1063043D01*
X537014Y1062904D01*
X537088Y1062840D01*
X537162Y1062784D01*
X537172Y1062775D01*
X537190Y1062766D01*
X537227Y1062747D01*
X537282Y1062719D01*
X537338Y1062692D01*
X537403Y1062664D01*
X537551Y1062618D01*
X537560D01*
X537578Y1062608D01*
X537615D01*
X537662Y1062599D01*
X537726Y1062590D01*
X537800D01*
X537902Y1062581D01*
X538993D01*
Y1065419D01*
X539843D01*
Y1059021D01*
D02*
G37*
G36*
X598054Y1073327D02*
X598119D01*
X598193Y1073318D01*
X598368Y1073281D01*
X598563Y1073235D01*
X598766Y1073161D01*
X598969Y1073050D01*
X599071Y1072985D01*
X599163Y1072911D01*
X599173Y1072902D01*
X599182Y1072893D01*
X599210Y1072865D01*
X599237Y1072837D01*
X599284Y1072791D01*
X599321Y1072736D01*
X599422Y1072606D01*
X599524Y1072440D01*
X599617Y1072236D01*
X599700Y1072005D01*
X599755Y1071746D01*
X598969Y1071682D01*
Y1071691D01*
X598960Y1071700D01*
X598951Y1071756D01*
X598923Y1071839D01*
X598886Y1071940D01*
X598849Y1072051D01*
X598794Y1072162D01*
X598729Y1072264D01*
X598664Y1072347D01*
X598646Y1072366D01*
X598609Y1072403D01*
X598544Y1072458D01*
X598451Y1072523D01*
X598331Y1072578D01*
X598202Y1072634D01*
X598045Y1072671D01*
X597878Y1072689D01*
X597814D01*
X597740Y1072680D01*
X597656Y1072662D01*
X597545Y1072634D01*
X597435Y1072597D01*
X597323Y1072551D01*
X597213Y1072477D01*
X597194Y1072467D01*
X597148Y1072430D01*
X597083Y1072366D01*
X597000Y1072273D01*
X596908Y1072162D01*
X596806Y1072033D01*
X596713Y1071867D01*
X596621Y1071682D01*
Y1071672D01*
X596612Y1071654D01*
X596602Y1071626D01*
X596584Y1071589D01*
X596575Y1071534D01*
X596556Y1071469D01*
X596538Y1071395D01*
X596519Y1071302D01*
X596491Y1071201D01*
X596473Y1071090D01*
X596455Y1070970D01*
X596445Y1070840D01*
X596427Y1070692D01*
X596418Y1070544D01*
X596408Y1070378D01*
Y1070211D01*
X596418Y1070221D01*
X596455Y1070276D01*
X596519Y1070350D01*
X596602Y1070443D01*
X596695Y1070554D01*
X596815Y1070655D01*
X596945Y1070757D01*
X597092Y1070849D01*
X597102D01*
X597111Y1070859D01*
X597166Y1070886D01*
X597250Y1070914D01*
X597360Y1070960D01*
X597490Y1070997D01*
X597638Y1071025D01*
X597795Y1071053D01*
X597962Y1071062D01*
X598036D01*
X598091Y1071053D01*
X598165Y1071044D01*
X598239Y1071034D01*
X598331Y1071016D01*
X598424Y1070988D01*
X598636Y1070923D01*
X598747Y1070877D01*
X598858Y1070813D01*
X598969Y1070748D01*
X599090Y1070674D01*
X599200Y1070581D01*
X599302Y1070480D01*
X599311Y1070470D01*
X599330Y1070452D01*
X599358Y1070424D01*
X599385Y1070378D01*
X599431Y1070313D01*
X599478Y1070248D01*
X599524Y1070165D01*
X599580Y1070073D01*
X599635Y1069971D01*
X599681Y1069860D01*
X599727Y1069731D01*
X599774Y1069601D01*
X599801Y1069463D01*
X599829Y1069305D01*
X599848Y1069148D01*
X599857Y1068982D01*
Y1068973D01*
Y1068954D01*
Y1068926D01*
Y1068880D01*
X599848Y1068825D01*
Y1068769D01*
X599820Y1068621D01*
X599792Y1068446D01*
X599746Y1068261D01*
X599681Y1068057D01*
X599589Y1067863D01*
Y1067854D01*
X599580Y1067845D01*
X599561Y1067817D01*
X599543Y1067780D01*
X599487Y1067688D01*
X599404Y1067567D01*
X599302Y1067438D01*
X599182Y1067308D01*
X599034Y1067179D01*
X598877Y1067068D01*
X598868D01*
X598858Y1067059D01*
X598831Y1067040D01*
X598794Y1067031D01*
X598701Y1066985D01*
X598581Y1066939D01*
X598424Y1066883D01*
X598248Y1066846D01*
X598054Y1066809D01*
X597841Y1066800D01*
X597795D01*
X597749Y1066809D01*
X597675D01*
X597592Y1066818D01*
X597499Y1066837D01*
X597388Y1066865D01*
X597277Y1066892D01*
X597148Y1066929D01*
X597018Y1066975D01*
X596889Y1067031D01*
X596750Y1067105D01*
X596621Y1067188D01*
X596491Y1067281D01*
X596362Y1067392D01*
X596242Y1067521D01*
X596233Y1067530D01*
X596214Y1067558D01*
X596186Y1067595D01*
X596149Y1067660D01*
X596094Y1067743D01*
X596048Y1067835D01*
X595992Y1067956D01*
X595937Y1068085D01*
X595872Y1068242D01*
X595816Y1068418D01*
X595770Y1068612D01*
X595724Y1068825D01*
X595678Y1069065D01*
X595650Y1069324D01*
X595632Y1069601D01*
X595622Y1069897D01*
Y1069906D01*
Y1069916D01*
Y1069943D01*
Y1069980D01*
X595632Y1070073D01*
Y1070202D01*
X595641Y1070350D01*
X595659Y1070526D01*
X595678Y1070720D01*
X595706Y1070933D01*
X595742Y1071145D01*
X595789Y1071376D01*
X595844Y1071598D01*
X595909Y1071820D01*
X595992Y1072033D01*
X596085Y1072236D01*
X596186Y1072430D01*
X596306Y1072597D01*
X596316Y1072606D01*
X596334Y1072625D01*
X596371Y1072662D01*
X596418Y1072717D01*
X596473Y1072773D01*
X596547Y1072828D01*
X596639Y1072902D01*
X596732Y1072967D01*
X596843Y1073031D01*
X596963Y1073105D01*
X597102Y1073161D01*
X597240Y1073226D01*
X597397Y1073272D01*
X597564Y1073309D01*
X597740Y1073327D01*
X597924Y1073336D01*
X597999D01*
X598054Y1073327D01*
D02*
G37*
G36*
X592451Y1073410D02*
X592534Y1073401D01*
X592636Y1073392D01*
X592738Y1073383D01*
X592858Y1073355D01*
X593108Y1073299D01*
X593385Y1073216D01*
X593524Y1073161D01*
X593653Y1073096D01*
X593783Y1073013D01*
X593912Y1072930D01*
X593921Y1072921D01*
X593940Y1072911D01*
X593977Y1072884D01*
X594023Y1072837D01*
X594069Y1072791D01*
X594134Y1072726D01*
X594198Y1072652D01*
X594272Y1072578D01*
X594347Y1072486D01*
X594420Y1072375D01*
X594504Y1072264D01*
X594578Y1072144D01*
X594642Y1072005D01*
X594716Y1071867D01*
X594772Y1071719D01*
X594827Y1071552D01*
X593995Y1071358D01*
Y1071367D01*
X593986Y1071386D01*
X593967Y1071423D01*
X593949Y1071469D01*
X593930Y1071524D01*
X593903Y1071598D01*
X593829Y1071746D01*
X593736Y1071913D01*
X593625Y1072079D01*
X593487Y1072236D01*
X593339Y1072375D01*
X593320Y1072393D01*
X593265Y1072430D01*
X593172Y1072477D01*
X593052Y1072541D01*
X592895Y1072597D01*
X592719Y1072652D01*
X592507Y1072689D01*
X592275Y1072699D01*
X592201D01*
X592155Y1072689D01*
X592090D01*
X592017Y1072680D01*
X591841Y1072652D01*
X591647Y1072615D01*
X591443Y1072551D01*
X591231Y1072458D01*
X591036Y1072338D01*
X591027D01*
X591018Y1072319D01*
X590953Y1072273D01*
X590870Y1072199D01*
X590768Y1072088D01*
X590648Y1071950D01*
X590537Y1071793D01*
X590436Y1071598D01*
X590343Y1071386D01*
Y1071376D01*
X590334Y1071358D01*
X590325Y1071330D01*
X590315Y1071284D01*
X590297Y1071228D01*
X590278Y1071164D01*
X590251Y1071007D01*
X590214Y1070822D01*
X590177Y1070618D01*
X590158Y1070396D01*
X590149Y1070156D01*
Y1070147D01*
Y1070119D01*
Y1070073D01*
Y1070017D01*
X590158Y1069953D01*
Y1069869D01*
X590168Y1069777D01*
X590177Y1069675D01*
X590204Y1069453D01*
X590251Y1069213D01*
X590306Y1068973D01*
X590380Y1068732D01*
Y1068723D01*
X590389Y1068705D01*
X590408Y1068677D01*
X590426Y1068631D01*
X590482Y1068520D01*
X590565Y1068390D01*
X590667Y1068242D01*
X590796Y1068085D01*
X590944Y1067946D01*
X591120Y1067817D01*
X591129D01*
X591147Y1067808D01*
X591175Y1067789D01*
X591212Y1067771D01*
X591258Y1067752D01*
X591314Y1067724D01*
X591443Y1067669D01*
X591610Y1067614D01*
X591795Y1067567D01*
X591998Y1067530D01*
X592211Y1067521D01*
X592275D01*
X592331Y1067530D01*
X592396D01*
X592460Y1067540D01*
X592627Y1067577D01*
X592821Y1067623D01*
X593015Y1067697D01*
X593218Y1067798D01*
X593320Y1067854D01*
X593413Y1067928D01*
X593422Y1067937D01*
X593431Y1067946D01*
X593459Y1067974D01*
X593496Y1068002D01*
X593533Y1068048D01*
X593579Y1068103D01*
X593635Y1068159D01*
X593681Y1068233D01*
X593736Y1068316D01*
X593801Y1068409D01*
X593856Y1068501D01*
X593912Y1068612D01*
X593958Y1068732D01*
X594004Y1068862D01*
X594051Y1069000D01*
X594088Y1069148D01*
X594938Y1068936D01*
Y1068926D01*
X594929Y1068889D01*
X594910Y1068834D01*
X594883Y1068760D01*
X594855Y1068677D01*
X594818Y1068575D01*
X594772Y1068464D01*
X594716Y1068344D01*
X594587Y1068085D01*
X594420Y1067826D01*
X594319Y1067697D01*
X594217Y1067567D01*
X594106Y1067456D01*
X593977Y1067345D01*
X593967Y1067336D01*
X593949Y1067318D01*
X593903Y1067299D01*
X593856Y1067262D01*
X593783Y1067216D01*
X593708Y1067170D01*
X593607Y1067123D01*
X593505Y1067077D01*
X593385Y1067022D01*
X593256Y1066975D01*
X593117Y1066929D01*
X592969Y1066883D01*
X592812Y1066846D01*
X592645Y1066828D01*
X592470Y1066809D01*
X592285Y1066800D01*
X592183D01*
X592109Y1066809D01*
X592026D01*
X591924Y1066818D01*
X591813Y1066837D01*
X591684Y1066855D01*
X591416Y1066902D01*
X591138Y1066975D01*
X590861Y1067077D01*
X590731Y1067142D01*
X590602Y1067216D01*
X590593Y1067225D01*
X590574Y1067234D01*
X590537Y1067262D01*
X590500Y1067299D01*
X590445Y1067336D01*
X590380Y1067392D01*
X590306Y1067456D01*
X590232Y1067530D01*
X590158Y1067614D01*
X590075Y1067697D01*
X589909Y1067909D01*
X589751Y1068159D01*
X589613Y1068436D01*
Y1068446D01*
X589594Y1068473D01*
X589585Y1068520D01*
X589557Y1068575D01*
X589539Y1068649D01*
X589511Y1068741D01*
X589474Y1068843D01*
X589446Y1068954D01*
X589419Y1069074D01*
X589382Y1069213D01*
X589335Y1069500D01*
X589298Y1069823D01*
X589280Y1070156D01*
Y1070165D01*
Y1070202D01*
Y1070258D01*
X589289Y1070322D01*
Y1070415D01*
X589298Y1070507D01*
X589308Y1070628D01*
X589326Y1070748D01*
X589372Y1071016D01*
X589437Y1071312D01*
X589529Y1071608D01*
X589659Y1071894D01*
X589668Y1071903D01*
X589677Y1071931D01*
X589696Y1071968D01*
X589733Y1072014D01*
X589770Y1072079D01*
X589816Y1072153D01*
X589936Y1072319D01*
X590093Y1072504D01*
X590278Y1072689D01*
X590491Y1072874D01*
X590741Y1073031D01*
X590750Y1073041D01*
X590778Y1073050D01*
X590815Y1073068D01*
X590861Y1073096D01*
X590935Y1073124D01*
X591009Y1073152D01*
X591101Y1073189D01*
X591203Y1073226D01*
X591314Y1073262D01*
X591434Y1073299D01*
X591693Y1073355D01*
X591989Y1073401D01*
X592294Y1073420D01*
X592386D01*
X592451Y1073410D01*
D02*
G37*
G36*
X442374Y1162594D02*
X442448Y1162585D01*
X442531Y1162575D01*
X442633Y1162557D01*
X442735Y1162538D01*
X442975Y1162483D01*
X443225Y1162390D01*
X443354Y1162335D01*
X443474Y1162261D01*
X443604Y1162187D01*
X443724Y1162094D01*
X443733Y1162085D01*
X443761Y1162067D01*
X443798Y1162030D01*
X443844Y1161983D01*
X443900Y1161919D01*
X443974Y1161845D01*
X444038Y1161752D01*
X444112Y1161651D01*
X444186Y1161540D01*
X444251Y1161410D01*
X444316Y1161272D01*
X444380Y1161124D01*
X444427Y1160966D01*
X444464Y1160791D01*
X444491Y1160606D01*
X444501Y1160412D01*
Y1160329D01*
X444491Y1160264D01*
X444482Y1160190D01*
X444473Y1160107D01*
X444464Y1160005D01*
X444436Y1159903D01*
X444380Y1159672D01*
X444297Y1159441D01*
X444242Y1159321D01*
X444177Y1159201D01*
X444103Y1159090D01*
X444020Y1158979D01*
X444011Y1158969D01*
X444001Y1158951D01*
X443964Y1158932D01*
X443927Y1158895D01*
X443881Y1158849D01*
X443826Y1158803D01*
X443752Y1158748D01*
X443669Y1158701D01*
X443585Y1158646D01*
X443484Y1158590D01*
X443262Y1158489D01*
X443003Y1158406D01*
X442864Y1158378D01*
X442716Y1158359D01*
X442651Y1159182D01*
X442661D01*
X442679D01*
X442707Y1159191D01*
X442753Y1159201D01*
X442855Y1159228D01*
X442994Y1159265D01*
X443132Y1159321D01*
X443289Y1159395D01*
X443428Y1159487D01*
X443558Y1159598D01*
X443567Y1159617D01*
X443604Y1159654D01*
X443650Y1159728D01*
X443705Y1159829D01*
X443761Y1159940D01*
X443807Y1160079D01*
X443844Y1160236D01*
X443853Y1160412D01*
Y1160467D01*
X443844Y1160504D01*
X443835Y1160615D01*
X443798Y1160745D01*
X443752Y1160902D01*
X443678Y1161059D01*
X443567Y1161225D01*
X443502Y1161299D01*
X443428Y1161373D01*
X443419Y1161383D01*
X443410Y1161392D01*
X443382Y1161410D01*
X443354Y1161438D01*
X443252Y1161503D01*
X443123Y1161577D01*
X442966Y1161641D01*
X442772Y1161706D01*
X442541Y1161752D01*
X442420Y1161771D01*
X442291D01*
X442282D01*
X442263D01*
X442226D01*
X442180Y1161762D01*
X442124D01*
X442060Y1161752D01*
X441912Y1161725D01*
X441736Y1161678D01*
X441561Y1161614D01*
X441394Y1161521D01*
X441237Y1161392D01*
X441228D01*
X441218Y1161373D01*
X441172Y1161327D01*
X441107Y1161244D01*
X441034Y1161133D01*
X440969Y1160985D01*
X440904Y1160819D01*
X440858Y1160624D01*
X440839Y1160514D01*
Y1160338D01*
X440849Y1160264D01*
X440858Y1160171D01*
X440886Y1160060D01*
X440913Y1159949D01*
X440960Y1159829D01*
X441015Y1159709D01*
X441024Y1159700D01*
X441043Y1159663D01*
X441089Y1159607D01*
X441135Y1159533D01*
X441200Y1159460D01*
X441283Y1159386D01*
X441366Y1159302D01*
X441468Y1159238D01*
X441366Y1158498D01*
X438075Y1159117D01*
Y1162298D01*
X438824D01*
Y1159737D01*
X440553Y1159395D01*
X440544Y1159404D01*
X440534Y1159423D01*
X440516Y1159450D01*
X440488Y1159497D01*
X440460Y1159552D01*
X440423Y1159617D01*
X440349Y1159765D01*
X440275Y1159949D01*
X440211Y1160153D01*
X440164Y1160375D01*
X440146Y1160486D01*
Y1160689D01*
X440155Y1160745D01*
X440164Y1160819D01*
X440174Y1160902D01*
X440192Y1160994D01*
X440220Y1161096D01*
X440285Y1161318D01*
X440331Y1161438D01*
X440396Y1161558D01*
X440460Y1161678D01*
X440534Y1161799D01*
X440627Y1161910D01*
X440728Y1162020D01*
X440738Y1162030D01*
X440756Y1162048D01*
X440784Y1162076D01*
X440830Y1162113D01*
X440895Y1162159D01*
X440960Y1162205D01*
X441043Y1162261D01*
X441135Y1162316D01*
X441237Y1162363D01*
X441348Y1162418D01*
X441477Y1162464D01*
X441607Y1162511D01*
X441745Y1162548D01*
X441903Y1162575D01*
X442060Y1162594D01*
X442226Y1162603D01*
X442235D01*
X442263D01*
X442309D01*
X442374Y1162594D01*
D02*
G37*
G36*
X442411Y1157629D02*
X442467Y1157610D01*
X442541Y1157583D01*
X442624Y1157555D01*
X442725Y1157518D01*
X442836Y1157472D01*
X442957Y1157416D01*
X443215Y1157287D01*
X443474Y1157120D01*
X443604Y1157019D01*
X443733Y1156917D01*
X443844Y1156806D01*
X443955Y1156677D01*
X443964Y1156667D01*
X443983Y1156649D01*
X444001Y1156603D01*
X444038Y1156556D01*
X444085Y1156482D01*
X444131Y1156408D01*
X444177Y1156307D01*
X444223Y1156205D01*
X444279Y1156085D01*
X444325Y1155955D01*
X444371Y1155817D01*
X444417Y1155669D01*
X444454Y1155512D01*
X444473Y1155345D01*
X444491Y1155170D01*
X444501Y1154985D01*
Y1154883D01*
X444491Y1154809D01*
Y1154726D01*
X444482Y1154624D01*
X444464Y1154513D01*
X444445Y1154384D01*
X444399Y1154116D01*
X444325Y1153838D01*
X444223Y1153561D01*
X444159Y1153431D01*
X444085Y1153302D01*
X444075Y1153293D01*
X444066Y1153274D01*
X444038Y1153237D01*
X444001Y1153200D01*
X443964Y1153145D01*
X443909Y1153080D01*
X443844Y1153006D01*
X443770Y1152932D01*
X443687Y1152858D01*
X443604Y1152775D01*
X443391Y1152608D01*
X443142Y1152451D01*
X442864Y1152313D01*
X442855D01*
X442827Y1152294D01*
X442781Y1152285D01*
X442725Y1152257D01*
X442651Y1152239D01*
X442559Y1152211D01*
X442457Y1152174D01*
X442346Y1152146D01*
X442226Y1152119D01*
X442088Y1152082D01*
X441801Y1152035D01*
X441477Y1151998D01*
X441144Y1151980D01*
X441135D01*
X441098D01*
X441043D01*
X440978Y1151989D01*
X440886D01*
X440793Y1151998D01*
X440673Y1152008D01*
X440553Y1152026D01*
X440285Y1152072D01*
X439989Y1152137D01*
X439693Y1152229D01*
X439406Y1152359D01*
X439397Y1152368D01*
X439369Y1152377D01*
X439332Y1152396D01*
X439286Y1152433D01*
X439221Y1152470D01*
X439147Y1152516D01*
X438981Y1152636D01*
X438796Y1152793D01*
X438611Y1152978D01*
X438426Y1153191D01*
X438269Y1153441D01*
X438260Y1153450D01*
X438251Y1153478D01*
X438232Y1153515D01*
X438204Y1153561D01*
X438177Y1153635D01*
X438149Y1153709D01*
X438112Y1153801D01*
X438075Y1153903D01*
X438038Y1154014D01*
X438001Y1154134D01*
X437946Y1154393D01*
X437899Y1154689D01*
X437881Y1154994D01*
Y1155086D01*
X437890Y1155151D01*
X437899Y1155234D01*
X437909Y1155336D01*
X437918Y1155438D01*
X437946Y1155558D01*
X438001Y1155807D01*
X438084Y1156085D01*
X438140Y1156224D01*
X438204Y1156353D01*
X438288Y1156482D01*
X438371Y1156612D01*
X438380Y1156621D01*
X438389Y1156640D01*
X438417Y1156677D01*
X438463Y1156723D01*
X438509Y1156769D01*
X438574Y1156834D01*
X438648Y1156898D01*
X438722Y1156972D01*
X438815Y1157046D01*
X438926Y1157120D01*
X439036Y1157204D01*
X439157Y1157278D01*
X439295Y1157342D01*
X439434Y1157416D01*
X439582Y1157472D01*
X439748Y1157527D01*
X439943Y1156695D01*
X439933D01*
X439915Y1156686D01*
X439878Y1156667D01*
X439832Y1156649D01*
X439776Y1156630D01*
X439702Y1156603D01*
X439554Y1156529D01*
X439388Y1156436D01*
X439221Y1156325D01*
X439064Y1156187D01*
X438926Y1156039D01*
X438907Y1156020D01*
X438870Y1155965D01*
X438824Y1155872D01*
X438759Y1155752D01*
X438704Y1155595D01*
X438648Y1155419D01*
X438611Y1155207D01*
X438602Y1154975D01*
Y1154901D01*
X438611Y1154855D01*
Y1154790D01*
X438620Y1154716D01*
X438648Y1154541D01*
X438685Y1154347D01*
X438750Y1154143D01*
X438842Y1153931D01*
X438963Y1153736D01*
Y1153727D01*
X438981Y1153718D01*
X439027Y1153653D01*
X439101Y1153570D01*
X439212Y1153468D01*
X439351Y1153348D01*
X439508Y1153237D01*
X439702Y1153136D01*
X439915Y1153043D01*
X439924D01*
X439943Y1153034D01*
X439970Y1153025D01*
X440017Y1153015D01*
X440072Y1152997D01*
X440137Y1152978D01*
X440294Y1152951D01*
X440479Y1152914D01*
X440682Y1152877D01*
X440904Y1152858D01*
X441144Y1152849D01*
X441154D01*
X441181D01*
X441228D01*
X441283D01*
X441348Y1152858D01*
X441431D01*
X441524Y1152867D01*
X441625Y1152877D01*
X441847Y1152904D01*
X442088Y1152951D01*
X442328Y1153006D01*
X442568Y1153080D01*
X442578D01*
X442596Y1153089D01*
X442624Y1153108D01*
X442670Y1153126D01*
X442781Y1153182D01*
X442910Y1153265D01*
X443058Y1153367D01*
X443215Y1153496D01*
X443354Y1153644D01*
X443484Y1153820D01*
Y1153829D01*
X443493Y1153847D01*
X443511Y1153875D01*
X443530Y1153912D01*
X443548Y1153958D01*
X443576Y1154014D01*
X443632Y1154143D01*
X443687Y1154310D01*
X443733Y1154495D01*
X443770Y1154698D01*
X443779Y1154911D01*
Y1154975D01*
X443770Y1155031D01*
Y1155096D01*
X443761Y1155160D01*
X443724Y1155327D01*
X443678Y1155521D01*
X443604Y1155715D01*
X443502Y1155918D01*
X443447Y1156020D01*
X443373Y1156113D01*
X443363Y1156122D01*
X443354Y1156131D01*
X443326Y1156159D01*
X443299Y1156196D01*
X443252Y1156233D01*
X443197Y1156279D01*
X443142Y1156335D01*
X443068Y1156381D01*
X442984Y1156436D01*
X442892Y1156501D01*
X442799Y1156556D01*
X442688Y1156612D01*
X442568Y1156658D01*
X442439Y1156704D01*
X442300Y1156750D01*
X442152Y1156787D01*
X442365Y1157638D01*
X442374D01*
X442411Y1157629D01*
D02*
G37*
G36*
X492043Y1064758D02*
X492062Y1064739D01*
X492099Y1064702D01*
X492154Y1064665D01*
X492219Y1064610D01*
X492293Y1064536D01*
X492385Y1064462D01*
X492496Y1064378D01*
X492607Y1064295D01*
X492737Y1064193D01*
X492884Y1064092D01*
X493032Y1063990D01*
X493199Y1063879D01*
X493374Y1063768D01*
X493569Y1063657D01*
X493763Y1063546D01*
X493772Y1063537D01*
X493809Y1063519D01*
X493865Y1063491D01*
X493948Y1063445D01*
X494049Y1063398D01*
X494160Y1063343D01*
X494290Y1063278D01*
X494438Y1063214D01*
X494604Y1063139D01*
X494771Y1063056D01*
X494955Y1062982D01*
X495150Y1062908D01*
X495547Y1062760D01*
X495973Y1062622D01*
X495982D01*
X496009Y1062613D01*
X496056Y1062603D01*
X496111Y1062585D01*
X496185Y1062566D01*
X496278Y1062548D01*
X496379Y1062520D01*
X496490Y1062502D01*
X496620Y1062474D01*
X496758Y1062446D01*
X497054Y1062400D01*
X497378Y1062354D01*
X497729Y1062326D01*
Y1061522D01*
X497720D01*
X497692D01*
X497655D01*
X497600Y1061531D01*
X497526D01*
X497433Y1061540D01*
X497332Y1061549D01*
X497221Y1061559D01*
X497091Y1061577D01*
X496962Y1061596D01*
X496805Y1061623D01*
X496647Y1061651D01*
X496481Y1061679D01*
X496296Y1061716D01*
X495917Y1061808D01*
X495908D01*
X495871Y1061817D01*
X495815Y1061836D01*
X495732Y1061864D01*
X495640Y1061891D01*
X495529Y1061928D01*
X495399Y1061965D01*
X495261Y1062021D01*
X495103Y1062076D01*
X494946Y1062132D01*
X494595Y1062270D01*
X494225Y1062437D01*
X493855Y1062622D01*
X493846Y1062631D01*
X493809Y1062650D01*
X493763Y1062677D01*
X493689Y1062714D01*
X493606Y1062760D01*
X493504Y1062825D01*
X493393Y1062890D01*
X493273Y1062964D01*
X493005Y1063139D01*
X492727Y1063324D01*
X492441Y1063537D01*
X492173Y1063759D01*
Y1060625D01*
X491414D01*
Y1064767D01*
X492034D01*
X492043Y1064758D01*
D02*
G37*
G36*
X495751Y1059839D02*
X495806Y1059820D01*
X495880Y1059793D01*
X495963Y1059765D01*
X496065Y1059728D01*
X496176Y1059682D01*
X496296Y1059626D01*
X496555Y1059497D01*
X496814Y1059330D01*
X496943Y1059229D01*
X497073Y1059127D01*
X497184Y1059016D01*
X497295Y1058887D01*
X497304Y1058877D01*
X497322Y1058859D01*
X497341Y1058813D01*
X497378Y1058766D01*
X497424Y1058692D01*
X497470Y1058618D01*
X497517Y1058517D01*
X497563Y1058415D01*
X497618Y1058295D01*
X497664Y1058165D01*
X497711Y1058027D01*
X497757Y1057879D01*
X497794Y1057722D01*
X497812Y1057555D01*
X497831Y1057380D01*
X497840Y1057195D01*
Y1057093D01*
X497831Y1057019D01*
Y1056936D01*
X497822Y1056834D01*
X497803Y1056723D01*
X497785Y1056594D01*
X497738Y1056326D01*
X497664Y1056048D01*
X497563Y1055771D01*
X497498Y1055641D01*
X497424Y1055512D01*
X497415Y1055503D01*
X497406Y1055484D01*
X497378Y1055447D01*
X497341Y1055410D01*
X497304Y1055355D01*
X497248Y1055290D01*
X497184Y1055216D01*
X497110Y1055142D01*
X497026Y1055068D01*
X496943Y1054985D01*
X496731Y1054818D01*
X496481Y1054661D01*
X496204Y1054523D01*
X496194D01*
X496167Y1054504D01*
X496120Y1054495D01*
X496065Y1054467D01*
X495991Y1054449D01*
X495899Y1054421D01*
X495797Y1054384D01*
X495686Y1054356D01*
X495566Y1054329D01*
X495427Y1054292D01*
X495140Y1054245D01*
X494817Y1054208D01*
X494484Y1054190D01*
X494475D01*
X494438D01*
X494382D01*
X494318Y1054199D01*
X494225D01*
X494133Y1054208D01*
X494012Y1054218D01*
X493892Y1054236D01*
X493624Y1054282D01*
X493328Y1054347D01*
X493032Y1054439D01*
X492746Y1054569D01*
X492737Y1054578D01*
X492709Y1054587D01*
X492672Y1054606D01*
X492626Y1054643D01*
X492561Y1054680D01*
X492487Y1054726D01*
X492321Y1054846D01*
X492136Y1055003D01*
X491951Y1055188D01*
X491766Y1055401D01*
X491609Y1055651D01*
X491599Y1055660D01*
X491590Y1055688D01*
X491572Y1055725D01*
X491544Y1055771D01*
X491516Y1055845D01*
X491488Y1055919D01*
X491451Y1056011D01*
X491414Y1056113D01*
X491377Y1056224D01*
X491340Y1056344D01*
X491285Y1056603D01*
X491239Y1056899D01*
X491220Y1057204D01*
Y1057296D01*
X491230Y1057361D01*
X491239Y1057444D01*
X491248Y1057546D01*
X491257Y1057648D01*
X491285Y1057768D01*
X491340Y1058018D01*
X491424Y1058295D01*
X491479Y1058434D01*
X491544Y1058563D01*
X491627Y1058692D01*
X491710Y1058822D01*
X491720Y1058831D01*
X491729Y1058850D01*
X491757Y1058887D01*
X491803Y1058933D01*
X491849Y1058979D01*
X491914Y1059044D01*
X491988Y1059108D01*
X492062Y1059182D01*
X492154Y1059256D01*
X492265Y1059330D01*
X492376Y1059414D01*
X492496Y1059488D01*
X492635Y1059552D01*
X492774Y1059626D01*
X492921Y1059682D01*
X493088Y1059737D01*
X493282Y1058905D01*
X493273D01*
X493254Y1058896D01*
X493217Y1058877D01*
X493171Y1058859D01*
X493116Y1058840D01*
X493042Y1058813D01*
X492894Y1058739D01*
X492727Y1058646D01*
X492561Y1058535D01*
X492404Y1058397D01*
X492265Y1058249D01*
X492247Y1058230D01*
X492210Y1058175D01*
X492163Y1058082D01*
X492099Y1057962D01*
X492043Y1057805D01*
X491988Y1057629D01*
X491951Y1057417D01*
X491941Y1057185D01*
Y1057111D01*
X491951Y1057065D01*
Y1057001D01*
X491960Y1056926D01*
X491988Y1056751D01*
X492025Y1056557D01*
X492089Y1056353D01*
X492182Y1056141D01*
X492302Y1055947D01*
Y1055937D01*
X492321Y1055928D01*
X492367Y1055863D01*
X492441Y1055780D01*
X492552Y1055678D01*
X492690Y1055558D01*
X492848Y1055447D01*
X493042Y1055346D01*
X493254Y1055253D01*
X493264D01*
X493282Y1055244D01*
X493310Y1055235D01*
X493356Y1055225D01*
X493411Y1055207D01*
X493476Y1055188D01*
X493633Y1055161D01*
X493818Y1055124D01*
X494022Y1055087D01*
X494244Y1055068D01*
X494484Y1055059D01*
X494493D01*
X494521D01*
X494567D01*
X494623D01*
X494687Y1055068D01*
X494771D01*
X494863Y1055077D01*
X494965Y1055087D01*
X495187Y1055114D01*
X495427Y1055161D01*
X495667Y1055216D01*
X495908Y1055290D01*
X495917D01*
X495936Y1055299D01*
X495963Y1055318D01*
X496009Y1055336D01*
X496120Y1055392D01*
X496250Y1055475D01*
X496398Y1055577D01*
X496555Y1055706D01*
X496694Y1055854D01*
X496823Y1056030D01*
Y1056039D01*
X496832Y1056057D01*
X496851Y1056085D01*
X496869Y1056122D01*
X496888Y1056168D01*
X496916Y1056224D01*
X496971Y1056353D01*
X497026Y1056520D01*
X497073Y1056705D01*
X497110Y1056908D01*
X497119Y1057121D01*
Y1057185D01*
X497110Y1057241D01*
Y1057306D01*
X497100Y1057370D01*
X497063Y1057537D01*
X497017Y1057731D01*
X496943Y1057925D01*
X496842Y1058128D01*
X496786Y1058230D01*
X496712Y1058323D01*
X496703Y1058332D01*
X496694Y1058341D01*
X496666Y1058369D01*
X496638Y1058406D01*
X496592Y1058443D01*
X496536Y1058489D01*
X496481Y1058544D01*
X496407Y1058591D01*
X496324Y1058646D01*
X496231Y1058711D01*
X496139Y1058766D01*
X496028Y1058822D01*
X495908Y1058868D01*
X495778Y1058914D01*
X495640Y1058960D01*
X495492Y1058997D01*
X495704Y1059848D01*
X495714D01*
X495751Y1059839D01*
D02*
G37*
G36*
X631692Y1111400D02*
X631775D01*
X631969Y1111390D01*
X632172Y1111363D01*
X632394Y1111335D01*
X632598Y1111289D01*
X632699Y1111261D01*
X632783Y1111233D01*
X632792D01*
X632801Y1111224D01*
X632857Y1111196D01*
X632940Y1111159D01*
X633041Y1111094D01*
X633153Y1111011D01*
X633273Y1110900D01*
X633384Y1110771D01*
X633495Y1110623D01*
Y1110614D01*
X633504Y1110604D01*
X633541Y1110549D01*
X633578Y1110456D01*
X633633Y1110336D01*
X633680Y1110198D01*
X633726Y1110031D01*
X633753Y1109855D01*
X633763Y1109661D01*
Y1109652D01*
Y1109634D01*
Y1109597D01*
X633753Y1109550D01*
Y1109486D01*
X633744Y1109421D01*
X633707Y1109264D01*
X633652Y1109079D01*
X633578Y1108885D01*
X633467Y1108691D01*
X633393Y1108598D01*
X633319Y1108506D01*
X633310Y1108496D01*
X633300Y1108487D01*
X633273Y1108459D01*
X633236Y1108432D01*
X633190Y1108395D01*
X633134Y1108358D01*
X633060Y1108311D01*
X632986Y1108256D01*
X632894Y1108210D01*
X632792Y1108164D01*
X632681Y1108108D01*
X632561Y1108062D01*
X632422Y1108025D01*
X632283Y1107979D01*
X632126Y1107951D01*
X631960Y1107923D01*
X631978Y1107914D01*
X632015Y1107895D01*
X632071Y1107859D01*
X632145Y1107822D01*
X632311Y1107720D01*
X632394Y1107655D01*
X632468Y1107600D01*
X632487Y1107581D01*
X632533Y1107535D01*
X632607Y1107461D01*
X632699Y1107368D01*
X632801Y1107239D01*
X632921Y1107100D01*
X633041Y1106934D01*
X633171Y1106749D01*
X634271Y1105011D01*
X633217D01*
X632376Y1106342D01*
Y1106351D01*
X632357Y1106370D01*
X632339Y1106398D01*
X632311Y1106435D01*
X632246Y1106536D01*
X632163Y1106666D01*
X632062Y1106805D01*
X631960Y1106952D01*
X631858Y1107091D01*
X631766Y1107221D01*
X631756Y1107230D01*
X631729Y1107267D01*
X631682Y1107322D01*
X631618Y1107387D01*
X631479Y1107526D01*
X631405Y1107590D01*
X631331Y1107646D01*
X631322Y1107655D01*
X631303Y1107664D01*
X631266Y1107683D01*
X631211Y1107710D01*
X631155Y1107738D01*
X631091Y1107766D01*
X630943Y1107812D01*
X630933D01*
X630915Y1107822D01*
X630878D01*
X630832Y1107831D01*
X630767Y1107840D01*
X630693D01*
X630591Y1107849D01*
X629501D01*
Y1105011D01*
X628650D01*
Y1111409D01*
X631618D01*
X631692Y1111400D01*
D02*
G37*
G36*
X636989Y1111427D02*
X637063Y1111418D01*
X637147Y1111409D01*
X637239Y1111400D01*
X637332Y1111372D01*
X637553Y1111316D01*
X637775Y1111233D01*
X637886Y1111178D01*
X637997Y1111113D01*
X638099Y1111030D01*
X638201Y1110947D01*
X638210Y1110937D01*
X638219Y1110928D01*
X638247Y1110900D01*
X638284Y1110863D01*
X638321Y1110808D01*
X638367Y1110752D01*
X638460Y1110614D01*
X638552Y1110438D01*
X638635Y1110235D01*
X638700Y1110003D01*
X638709Y1109883D01*
X638718Y1109754D01*
Y1109745D01*
Y1109735D01*
Y1109680D01*
X638709Y1109597D01*
X638691Y1109495D01*
X638663Y1109365D01*
X638617Y1109236D01*
X638561Y1109107D01*
X638478Y1108977D01*
X638469Y1108959D01*
X638432Y1108922D01*
X638376Y1108866D01*
X638302Y1108792D01*
X638201Y1108709D01*
X638080Y1108626D01*
X637942Y1108543D01*
X637775Y1108469D01*
X637785D01*
X637803Y1108459D01*
X637831Y1108450D01*
X637868Y1108432D01*
X637979Y1108385D01*
X638108Y1108321D01*
X638247Y1108228D01*
X638395Y1108127D01*
X638533Y1107997D01*
X638663Y1107849D01*
Y1107840D01*
X638672Y1107831D01*
X638709Y1107775D01*
X638765Y1107683D01*
X638820Y1107563D01*
X638876Y1107415D01*
X638931Y1107239D01*
X638968Y1107045D01*
X638977Y1106832D01*
Y1106823D01*
Y1106795D01*
Y1106749D01*
X638968Y1106693D01*
X638959Y1106629D01*
X638950Y1106546D01*
X638931Y1106453D01*
X638903Y1106351D01*
X638839Y1106139D01*
X638792Y1106019D01*
X638728Y1105908D01*
X638663Y1105788D01*
X638589Y1105676D01*
X638496Y1105566D01*
X638395Y1105455D01*
X638386Y1105445D01*
X638367Y1105427D01*
X638339Y1105399D01*
X638293Y1105371D01*
X638228Y1105325D01*
X638164Y1105279D01*
X638080Y1105233D01*
X637988Y1105177D01*
X637886Y1105122D01*
X637766Y1105076D01*
X637637Y1105029D01*
X637507Y1104983D01*
X637359Y1104955D01*
X637202Y1104928D01*
X637045Y1104909D01*
X636869Y1104900D01*
X636777D01*
X636712Y1104909D01*
X636629Y1104918D01*
X636536Y1104928D01*
X636435Y1104946D01*
X636324Y1104974D01*
X636074Y1105039D01*
X635945Y1105085D01*
X635825Y1105131D01*
X635695Y1105196D01*
X635566Y1105270D01*
X635445Y1105353D01*
X635334Y1105455D01*
X635325Y1105464D01*
X635307Y1105482D01*
X635279Y1105510D01*
X635242Y1105556D01*
X635205Y1105612D01*
X635149Y1105676D01*
X635103Y1105751D01*
X635048Y1105843D01*
X634992Y1105935D01*
X634946Y1106046D01*
X634854Y1106277D01*
X634817Y1106416D01*
X634789Y1106555D01*
X634771Y1106703D01*
X634761Y1106851D01*
Y1106860D01*
Y1106878D01*
Y1106915D01*
X634771Y1106952D01*
Y1107008D01*
X634780Y1107073D01*
X634798Y1107221D01*
X634835Y1107387D01*
X634891Y1107553D01*
X634974Y1107729D01*
X635076Y1107895D01*
Y1107905D01*
X635094Y1107914D01*
X635131Y1107960D01*
X635205Y1108034D01*
X635307Y1108127D01*
X635436Y1108219D01*
X635593Y1108321D01*
X635769Y1108404D01*
X635982Y1108469D01*
X635972D01*
X635963Y1108478D01*
X635935Y1108487D01*
X635898Y1108506D01*
X635815Y1108543D01*
X635704Y1108598D01*
X635584Y1108672D01*
X635464Y1108764D01*
X635353Y1108866D01*
X635251Y1108977D01*
X635242Y1108996D01*
X635214Y1109033D01*
X635177Y1109107D01*
X635140Y1109199D01*
X635094Y1109319D01*
X635057Y1109458D01*
X635029Y1109615D01*
X635020Y1109781D01*
Y1109791D01*
Y1109809D01*
Y1109846D01*
X635029Y1109902D01*
X635039Y1109957D01*
X635048Y1110031D01*
X635085Y1110188D01*
X635140Y1110373D01*
X635233Y1110567D01*
X635288Y1110669D01*
X635353Y1110771D01*
X635436Y1110863D01*
X635519Y1110956D01*
X635529Y1110965D01*
X635547Y1110974D01*
X635575Y1111002D01*
X635612Y1111030D01*
X635658Y1111067D01*
X635723Y1111104D01*
X635797Y1111150D01*
X635871Y1111196D01*
X635963Y1111242D01*
X636065Y1111289D01*
X636176Y1111326D01*
X636296Y1111363D01*
X636555Y1111418D01*
X636703Y1111427D01*
X636851Y1111436D01*
X636934D01*
X636989Y1111427D01*
D02*
G37*
G36*
X580242Y1148032D02*
X577274D01*
X577200Y1148041D01*
X577117D01*
X576923Y1148051D01*
X576720Y1148078D01*
X576498Y1148106D01*
X576294Y1148152D01*
X576193Y1148180D01*
X576110Y1148208D01*
X576100D01*
X576091Y1148217D01*
X576035Y1148245D01*
X575952Y1148282D01*
X575851Y1148346D01*
X575740Y1148430D01*
X575619Y1148541D01*
X575508Y1148670D01*
X575398Y1148818D01*
Y1148827D01*
X575388Y1148837D01*
X575351Y1148892D01*
X575314Y1148984D01*
X575259Y1149105D01*
X575213Y1149243D01*
X575166Y1149410D01*
X575139Y1149585D01*
X575129Y1149780D01*
Y1149789D01*
Y1149807D01*
Y1149844D01*
X575139Y1149891D01*
Y1149955D01*
X575148Y1150020D01*
X575185Y1150177D01*
X575240Y1150362D01*
X575314Y1150556D01*
X575425Y1150750D01*
X575499Y1150843D01*
X575573Y1150935D01*
X575583Y1150945D01*
X575592Y1150954D01*
X575619Y1150982D01*
X575656Y1151009D01*
X575703Y1151046D01*
X575758Y1151083D01*
X575832Y1151129D01*
X575906Y1151185D01*
X575998Y1151231D01*
X576100Y1151277D01*
X576211Y1151333D01*
X576331Y1151379D01*
X576470Y1151416D01*
X576609Y1151462D01*
X576766Y1151490D01*
X576932Y1151518D01*
X576914Y1151527D01*
X576877Y1151545D01*
X576821Y1151582D01*
X576747Y1151619D01*
X576581Y1151721D01*
X576498Y1151786D01*
X576424Y1151841D01*
X576405Y1151860D01*
X576359Y1151906D01*
X576285Y1151980D01*
X576193Y1152072D01*
X576091Y1152202D01*
X575971Y1152341D01*
X575851Y1152507D01*
X575721Y1152692D01*
X574621Y1154430D01*
X575675D01*
X576516Y1153099D01*
Y1153090D01*
X576535Y1153071D01*
X576553Y1153043D01*
X576581Y1153006D01*
X576646Y1152905D01*
X576729Y1152775D01*
X576831Y1152636D01*
X576932Y1152488D01*
X577034Y1152350D01*
X577127Y1152220D01*
X577136Y1152211D01*
X577164Y1152174D01*
X577210Y1152119D01*
X577274Y1152054D01*
X577413Y1151915D01*
X577487Y1151851D01*
X577561Y1151795D01*
X577570Y1151786D01*
X577589Y1151777D01*
X577626Y1151758D01*
X577681Y1151730D01*
X577737Y1151703D01*
X577801Y1151675D01*
X577949Y1151629D01*
X577959D01*
X577977Y1151619D01*
X578014D01*
X578060Y1151610D01*
X578125Y1151601D01*
X578199D01*
X578301Y1151592D01*
X579392D01*
Y1154430D01*
X580242D01*
Y1148032D01*
D02*
G37*
G36*
X574233Y1154421D02*
Y1154384D01*
Y1154328D01*
X574223Y1154254D01*
X574214Y1154171D01*
X574196Y1154079D01*
X574177Y1153986D01*
X574140Y1153885D01*
Y1153875D01*
X574131Y1153866D01*
X574112Y1153811D01*
X574075Y1153727D01*
X574020Y1153616D01*
X573946Y1153487D01*
X573853Y1153339D01*
X573752Y1153191D01*
X573622Y1153034D01*
Y1153025D01*
X573604Y1153016D01*
X573558Y1152960D01*
X573475Y1152877D01*
X573354Y1152757D01*
X573216Y1152618D01*
X573040Y1152451D01*
X572827Y1152267D01*
X572596Y1152072D01*
X572587Y1152063D01*
X572550Y1152036D01*
X572494Y1151989D01*
X572430Y1151934D01*
X572346Y1151860D01*
X572245Y1151777D01*
X572143Y1151684D01*
X572023Y1151582D01*
X571792Y1151360D01*
X571561Y1151139D01*
X571450Y1151028D01*
X571348Y1150917D01*
X571255Y1150815D01*
X571182Y1150713D01*
Y1150704D01*
X571163Y1150695D01*
X571145Y1150667D01*
X571126Y1150630D01*
X571061Y1150528D01*
X570987Y1150408D01*
X570923Y1150260D01*
X570858Y1150103D01*
X570821Y1149928D01*
X570802Y1149761D01*
Y1149752D01*
Y1149743D01*
X570812Y1149687D01*
X570821Y1149595D01*
X570849Y1149493D01*
X570886Y1149363D01*
X570950Y1149234D01*
X571034Y1149105D01*
X571145Y1148975D01*
X571163Y1148957D01*
X571209Y1148920D01*
X571274Y1148874D01*
X571376Y1148809D01*
X571505Y1148753D01*
X571653Y1148698D01*
X571829Y1148661D01*
X572023Y1148652D01*
X572078D01*
X572115Y1148661D01*
X572226Y1148670D01*
X572356Y1148698D01*
X572494Y1148735D01*
X572652Y1148800D01*
X572799Y1148883D01*
X572938Y1148994D01*
X572957Y1149012D01*
X572994Y1149058D01*
X573049Y1149132D01*
X573105Y1149243D01*
X573169Y1149373D01*
X573225Y1149539D01*
X573262Y1149724D01*
X573280Y1149937D01*
X574085Y1149854D01*
Y1149844D01*
X574075Y1149817D01*
Y1149770D01*
X574066Y1149706D01*
X574048Y1149632D01*
X574029Y1149548D01*
X574002Y1149447D01*
X573974Y1149345D01*
X573900Y1149123D01*
X573789Y1148901D01*
X573724Y1148790D01*
X573641Y1148679D01*
X573558Y1148578D01*
X573465Y1148485D01*
X573456Y1148476D01*
X573438Y1148467D01*
X573410Y1148439D01*
X573363Y1148411D01*
X573308Y1148374D01*
X573243Y1148337D01*
X573169Y1148291D01*
X573077Y1148245D01*
X572975Y1148198D01*
X572864Y1148152D01*
X572744Y1148115D01*
X572615Y1148078D01*
X572476Y1148051D01*
X572328Y1148023D01*
X572171Y1148014D01*
X572004Y1148004D01*
X571912D01*
X571847Y1148014D01*
X571773Y1148023D01*
X571681Y1148032D01*
X571579Y1148051D01*
X571477Y1148069D01*
X571237Y1148134D01*
X570997Y1148226D01*
X570877Y1148282D01*
X570756Y1148346D01*
X570645Y1148430D01*
X570544Y1148522D01*
X570534Y1148531D01*
X570516Y1148541D01*
X570497Y1148578D01*
X570460Y1148615D01*
X570414Y1148661D01*
X570368Y1148726D01*
X570322Y1148790D01*
X570266Y1148874D01*
X570174Y1149049D01*
X570081Y1149271D01*
X570044Y1149382D01*
X570026Y1149511D01*
X570007Y1149641D01*
X569998Y1149780D01*
Y1149798D01*
Y1149844D01*
X570007Y1149918D01*
X570017Y1150020D01*
X570035Y1150131D01*
X570072Y1150260D01*
X570109Y1150399D01*
X570164Y1150538D01*
X570174Y1150556D01*
X570192Y1150602D01*
X570229Y1150676D01*
X570285Y1150778D01*
X570359Y1150889D01*
X570451Y1151028D01*
X570562Y1151166D01*
X570691Y1151324D01*
X570710Y1151342D01*
X570756Y1151397D01*
X570802Y1151444D01*
X570849Y1151490D01*
X570904Y1151545D01*
X570978Y1151619D01*
X571052Y1151693D01*
X571145Y1151777D01*
X571237Y1151869D01*
X571348Y1151971D01*
X571468Y1152072D01*
X571598Y1152193D01*
X571745Y1152313D01*
X571894Y1152442D01*
X571903Y1152451D01*
X571921Y1152470D01*
X571958Y1152498D01*
X572004Y1152535D01*
X572060Y1152590D01*
X572125Y1152646D01*
X572272Y1152766D01*
X572430Y1152905D01*
X572578Y1153043D01*
X572707Y1153163D01*
X572763Y1153210D01*
X572809Y1153256D01*
X572818Y1153265D01*
X572846Y1153293D01*
X572883Y1153330D01*
X572929Y1153385D01*
X572975Y1153450D01*
X573031Y1153515D01*
X573142Y1153672D01*
X569989D01*
Y1154430D01*
X574233D01*
Y1154421D01*
D02*
G37*
G36*
X490170Y1154088D02*
Y1154079D01*
Y1154042D01*
Y1153996D01*
Y1153931D01*
X490160Y1153848D01*
Y1153755D01*
X490151Y1153644D01*
X490142Y1153533D01*
X490114Y1153284D01*
X490077Y1153025D01*
X490022Y1152775D01*
X489985Y1152655D01*
X489948Y1152544D01*
Y1152535D01*
X489939Y1152516D01*
X489920Y1152489D01*
X489902Y1152452D01*
X489846Y1152350D01*
X489763Y1152221D01*
X489652Y1152073D01*
X489522Y1151925D01*
X489356Y1151768D01*
X489153Y1151629D01*
X489143D01*
X489125Y1151610D01*
X489097Y1151601D01*
X489051Y1151573D01*
X488995Y1151546D01*
X488922Y1151518D01*
X488848Y1151490D01*
X488755Y1151453D01*
X488653Y1151416D01*
X488542Y1151388D01*
X488422Y1151361D01*
X488284Y1151333D01*
X488145Y1151314D01*
X487997Y1151296D01*
X487664Y1151278D01*
X487581D01*
X487516Y1151287D01*
X487442D01*
X487350Y1151296D01*
X487248Y1151305D01*
X487146Y1151314D01*
X486915Y1151351D01*
X486665Y1151407D01*
X486425Y1151481D01*
X486194Y1151583D01*
X486185D01*
X486166Y1151601D01*
X486138Y1151620D01*
X486101Y1151638D01*
X486000Y1151712D01*
X485880Y1151814D01*
X485741Y1151943D01*
X485611Y1152091D01*
X485482Y1152276D01*
X485380Y1152479D01*
Y1152489D01*
X485371Y1152507D01*
X485362Y1152544D01*
X485343Y1152590D01*
X485325Y1152646D01*
X485306Y1152720D01*
X485279Y1152803D01*
X485260Y1152905D01*
X485242Y1153016D01*
X485214Y1153136D01*
X485196Y1153265D01*
X485177Y1153404D01*
X485159Y1153561D01*
X485149Y1153728D01*
X485140Y1153903D01*
Y1154088D01*
Y1157786D01*
X485991D01*
Y1154088D01*
Y1154079D01*
Y1154051D01*
Y1154005D01*
Y1153950D01*
X486000Y1153885D01*
Y1153802D01*
X486009Y1153626D01*
X486028Y1153422D01*
X486055Y1153219D01*
X486092Y1153025D01*
X486111Y1152942D01*
X486138Y1152859D01*
X486148Y1152840D01*
X486166Y1152794D01*
X486213Y1152729D01*
X486268Y1152637D01*
X486333Y1152544D01*
X486425Y1152442D01*
X486536Y1152341D01*
X486665Y1152258D01*
X486684Y1152248D01*
X486730Y1152221D01*
X486814Y1152193D01*
X486924Y1152156D01*
X487054Y1152110D01*
X487220Y1152082D01*
X487396Y1152054D01*
X487590Y1152045D01*
X487682D01*
X487738Y1152054D01*
X487821D01*
X487904Y1152063D01*
X488108Y1152100D01*
X488330Y1152147D01*
X488542Y1152221D01*
X488746Y1152322D01*
X488838Y1152387D01*
X488922Y1152461D01*
X488931Y1152470D01*
X488940Y1152479D01*
X488958Y1152507D01*
X488986Y1152544D01*
X489014Y1152600D01*
X489051Y1152655D01*
X489088Y1152738D01*
X489125Y1152822D01*
X489162Y1152923D01*
X489190Y1153044D01*
X489227Y1153182D01*
X489254Y1153330D01*
X489282Y1153496D01*
X489300Y1153672D01*
X489319Y1153876D01*
Y1154088D01*
Y1157786D01*
X490170D01*
Y1154088D01*
D02*
G37*
G36*
X493535Y1157805D02*
X493609Y1157796D01*
X493701Y1157786D01*
X493803Y1157768D01*
X493905Y1157749D01*
X494145Y1157685D01*
X494386Y1157592D01*
X494506Y1157537D01*
X494626Y1157472D01*
X494737Y1157389D01*
X494839Y1157296D01*
X494848Y1157287D01*
X494866Y1157278D01*
X494885Y1157241D01*
X494922Y1157204D01*
X494968Y1157158D01*
X495014Y1157093D01*
X495061Y1157028D01*
X495116Y1156945D01*
X495209Y1156769D01*
X495301Y1156547D01*
X495338Y1156437D01*
X495356Y1156307D01*
X495375Y1156178D01*
X495384Y1156039D01*
Y1156021D01*
Y1155974D01*
X495375Y1155900D01*
X495366Y1155799D01*
X495347Y1155688D01*
X495310Y1155558D01*
X495273Y1155420D01*
X495218Y1155281D01*
X495209Y1155262D01*
X495190Y1155216D01*
X495153Y1155142D01*
X495098Y1155041D01*
X495023Y1154930D01*
X494931Y1154791D01*
X494820Y1154652D01*
X494691Y1154495D01*
X494672Y1154476D01*
X494626Y1154421D01*
X494580Y1154375D01*
X494534Y1154329D01*
X494478Y1154273D01*
X494404Y1154199D01*
X494330Y1154125D01*
X494238Y1154042D01*
X494145Y1153950D01*
X494034Y1153848D01*
X493914Y1153746D01*
X493785Y1153626D01*
X493637Y1153506D01*
X493489Y1153376D01*
X493479Y1153367D01*
X493461Y1153349D01*
X493424Y1153321D01*
X493378Y1153284D01*
X493322Y1153228D01*
X493258Y1153173D01*
X493110Y1153053D01*
X492952Y1152914D01*
X492805Y1152775D01*
X492675Y1152655D01*
X492620Y1152609D01*
X492574Y1152563D01*
X492564Y1152553D01*
X492537Y1152526D01*
X492500Y1152489D01*
X492453Y1152433D01*
X492407Y1152368D01*
X492352Y1152304D01*
X492241Y1152147D01*
X495393D01*
Y1151388D01*
X491150D01*
Y1151398D01*
Y1151435D01*
Y1151490D01*
X491159Y1151564D01*
X491168Y1151647D01*
X491187Y1151740D01*
X491205Y1151832D01*
X491242Y1151934D01*
Y1151943D01*
X491251Y1151953D01*
X491270Y1152008D01*
X491307Y1152091D01*
X491362Y1152202D01*
X491436Y1152332D01*
X491529Y1152479D01*
X491630Y1152627D01*
X491760Y1152785D01*
Y1152794D01*
X491778Y1152803D01*
X491825Y1152859D01*
X491908Y1152942D01*
X492028Y1153062D01*
X492167Y1153201D01*
X492342Y1153367D01*
X492555Y1153552D01*
X492786Y1153746D01*
X492795Y1153755D01*
X492832Y1153783D01*
X492888Y1153829D01*
X492952Y1153885D01*
X493036Y1153959D01*
X493137Y1154042D01*
X493239Y1154134D01*
X493359Y1154236D01*
X493591Y1154458D01*
X493822Y1154680D01*
X493933Y1154791D01*
X494034Y1154902D01*
X494127Y1155004D01*
X494201Y1155105D01*
Y1155115D01*
X494219Y1155124D01*
X494238Y1155152D01*
X494256Y1155188D01*
X494321Y1155290D01*
X494395Y1155410D01*
X494460Y1155558D01*
X494524Y1155715D01*
X494561Y1155891D01*
X494580Y1156058D01*
Y1156067D01*
Y1156076D01*
X494571Y1156132D01*
X494561Y1156224D01*
X494534Y1156326D01*
X494496Y1156455D01*
X494432Y1156584D01*
X494349Y1156714D01*
X494238Y1156843D01*
X494219Y1156862D01*
X494173Y1156899D01*
X494108Y1156945D01*
X494007Y1157010D01*
X493877Y1157065D01*
X493729Y1157121D01*
X493554Y1157158D01*
X493359Y1157167D01*
X493304D01*
X493267Y1157158D01*
X493156Y1157149D01*
X493027Y1157121D01*
X492888Y1157084D01*
X492731Y1157019D01*
X492583Y1156936D01*
X492444Y1156825D01*
X492425Y1156806D01*
X492389Y1156760D01*
X492333Y1156686D01*
X492278Y1156575D01*
X492213Y1156446D01*
X492157Y1156279D01*
X492120Y1156095D01*
X492102Y1155882D01*
X491298Y1155965D01*
Y1155974D01*
X491307Y1156002D01*
Y1156048D01*
X491316Y1156113D01*
X491335Y1156187D01*
X491353Y1156270D01*
X491381Y1156372D01*
X491409Y1156474D01*
X491483Y1156695D01*
X491593Y1156917D01*
X491658Y1157028D01*
X491741Y1157139D01*
X491825Y1157241D01*
X491917Y1157333D01*
X491926Y1157343D01*
X491945Y1157352D01*
X491973Y1157380D01*
X492019Y1157407D01*
X492074Y1157444D01*
X492139Y1157481D01*
X492213Y1157528D01*
X492305Y1157574D01*
X492407Y1157620D01*
X492518Y1157666D01*
X492638Y1157703D01*
X492768Y1157740D01*
X492906Y1157768D01*
X493054Y1157796D01*
X493211Y1157805D01*
X493378Y1157814D01*
X493470D01*
X493535Y1157805D01*
D02*
G37*
G36*
X629313Y1063673D02*
X629332Y1063654D01*
X629369Y1063617D01*
X629424Y1063580D01*
X629489Y1063525D01*
X629563Y1063451D01*
X629655Y1063377D01*
X629766Y1063294D01*
X629877Y1063210D01*
X630007Y1063109D01*
X630155Y1063007D01*
X630303Y1062905D01*
X630469Y1062794D01*
X630645Y1062683D01*
X630839Y1062572D01*
X631033Y1062461D01*
X631042Y1062452D01*
X631079Y1062434D01*
X631135Y1062406D01*
X631218Y1062360D01*
X631320Y1062314D01*
X631431Y1062258D01*
X631560Y1062193D01*
X631708Y1062129D01*
X631874Y1062055D01*
X632041Y1061971D01*
X632226Y1061898D01*
X632420Y1061824D01*
X632817Y1061676D01*
X633243Y1061537D01*
X633252D01*
X633280Y1061528D01*
X633326Y1061518D01*
X633381Y1061500D01*
X633455Y1061481D01*
X633548Y1061463D01*
X633649Y1061435D01*
X633760Y1061417D01*
X633890Y1061389D01*
X634029Y1061361D01*
X634324Y1061315D01*
X634648Y1061269D01*
X634999Y1061241D01*
Y1060437D01*
X634990D01*
X634962D01*
X634925D01*
X634870Y1060446D01*
X634796D01*
X634703Y1060455D01*
X634602Y1060464D01*
X634491Y1060474D01*
X634361Y1060492D01*
X634232Y1060511D01*
X634075Y1060538D01*
X633918Y1060566D01*
X633751Y1060594D01*
X633566Y1060631D01*
X633187Y1060723D01*
X633178D01*
X633141Y1060732D01*
X633086Y1060751D01*
X633002Y1060779D01*
X632910Y1060807D01*
X632799Y1060844D01*
X632669Y1060881D01*
X632531Y1060936D01*
X632374Y1060991D01*
X632216Y1061047D01*
X631865Y1061186D01*
X631495Y1061352D01*
X631125Y1061537D01*
X631116Y1061546D01*
X631079Y1061565D01*
X631033Y1061592D01*
X630959Y1061629D01*
X630876Y1061676D01*
X630774Y1061740D01*
X630663Y1061805D01*
X630543Y1061879D01*
X630275Y1062055D01*
X629997Y1062240D01*
X629711Y1062452D01*
X629443Y1062674D01*
Y1059540D01*
X628685D01*
Y1063682D01*
X629304D01*
X629313Y1063673D01*
D02*
G37*
G36*
X634999Y1057931D02*
X633668Y1057090D01*
X633659D01*
X633640Y1057071D01*
X633613Y1057053D01*
X633576Y1057025D01*
X633474Y1056960D01*
X633344Y1056877D01*
X633206Y1056775D01*
X633058Y1056674D01*
X632919Y1056572D01*
X632790Y1056479D01*
X632780Y1056470D01*
X632743Y1056443D01*
X632688Y1056396D01*
X632623Y1056332D01*
X632485Y1056193D01*
X632420Y1056119D01*
X632364Y1056045D01*
X632355Y1056036D01*
X632346Y1056017D01*
X632327Y1055980D01*
X632300Y1055925D01*
X632272Y1055869D01*
X632244Y1055805D01*
X632198Y1055657D01*
Y1055647D01*
X632189Y1055629D01*
Y1055592D01*
X632179Y1055546D01*
X632170Y1055481D01*
Y1055407D01*
X632161Y1055305D01*
Y1054214D01*
X634999D01*
Y1053364D01*
X628601D01*
Y1056332D01*
X628611Y1056406D01*
Y1056489D01*
X628620Y1056683D01*
X628648Y1056886D01*
X628675Y1057108D01*
X628722Y1057312D01*
X628749Y1057413D01*
X628777Y1057497D01*
Y1057506D01*
X628786Y1057515D01*
X628814Y1057570D01*
X628851Y1057654D01*
X628916Y1057755D01*
X628999Y1057866D01*
X629110Y1057987D01*
X629239Y1058098D01*
X629387Y1058208D01*
X629397D01*
X629406Y1058218D01*
X629461Y1058255D01*
X629554Y1058292D01*
X629674Y1058347D01*
X629813Y1058393D01*
X629979Y1058440D01*
X630155Y1058467D01*
X630349Y1058477D01*
X630358D01*
X630377D01*
X630414D01*
X630460Y1058467D01*
X630524D01*
X630589Y1058458D01*
X630746Y1058421D01*
X630931Y1058366D01*
X631125Y1058292D01*
X631320Y1058181D01*
X631412Y1058107D01*
X631505Y1058033D01*
X631514Y1058024D01*
X631523Y1058014D01*
X631551Y1057987D01*
X631578Y1057950D01*
X631615Y1057903D01*
X631652Y1057848D01*
X631699Y1057774D01*
X631754Y1057700D01*
X631800Y1057607D01*
X631847Y1057506D01*
X631902Y1057395D01*
X631948Y1057275D01*
X631985Y1057136D01*
X632032Y1056997D01*
X632059Y1056840D01*
X632087Y1056674D01*
X632096Y1056692D01*
X632115Y1056729D01*
X632152Y1056785D01*
X632189Y1056859D01*
X632290Y1057025D01*
X632355Y1057108D01*
X632411Y1057182D01*
X632429Y1057201D01*
X632475Y1057247D01*
X632549Y1057321D01*
X632642Y1057413D01*
X632771Y1057515D01*
X632910Y1057635D01*
X633076Y1057755D01*
X633261Y1057885D01*
X634999Y1058985D01*
Y1057931D01*
D02*
G37*
G36*
X536482Y1162311D02*
X536565Y1162302D01*
X536667Y1162292D01*
X536768Y1162283D01*
X536889Y1162255D01*
X537138Y1162200D01*
X537416Y1162117D01*
X537554Y1162061D01*
X537684Y1161997D01*
X537813Y1161913D01*
X537943Y1161830D01*
X537952Y1161821D01*
X537970Y1161812D01*
X538007Y1161784D01*
X538054Y1161738D01*
X538100Y1161692D01*
X538164Y1161627D01*
X538229Y1161553D01*
X538303Y1161479D01*
X538377Y1161386D01*
X538451Y1161275D01*
X538534Y1161164D01*
X538608Y1161044D01*
X538673Y1160906D01*
X538747Y1160767D01*
X538802Y1160619D01*
X538858Y1160453D01*
X538026Y1160258D01*
Y1160268D01*
X538017Y1160286D01*
X537998Y1160323D01*
X537980Y1160369D01*
X537961Y1160425D01*
X537933Y1160499D01*
X537859Y1160647D01*
X537767Y1160813D01*
X537656Y1160980D01*
X537517Y1161137D01*
X537369Y1161275D01*
X537351Y1161294D01*
X537295Y1161331D01*
X537203Y1161377D01*
X537083Y1161442D01*
X536926Y1161497D01*
X536750Y1161553D01*
X536537Y1161590D01*
X536306Y1161599D01*
X536232D01*
X536186Y1161590D01*
X536121D01*
X536047Y1161581D01*
X535872Y1161553D01*
X535677Y1161516D01*
X535474Y1161451D01*
X535261Y1161359D01*
X535067Y1161238D01*
X535058D01*
X535049Y1161220D01*
X534984Y1161174D01*
X534901Y1161100D01*
X534799Y1160989D01*
X534679Y1160850D01*
X534568Y1160693D01*
X534466Y1160499D01*
X534374Y1160286D01*
Y1160277D01*
X534365Y1160258D01*
X534355Y1160231D01*
X534346Y1160184D01*
X534328Y1160129D01*
X534309Y1160064D01*
X534281Y1159907D01*
X534244Y1159722D01*
X534207Y1159519D01*
X534189Y1159297D01*
X534180Y1159056D01*
Y1159047D01*
Y1159020D01*
Y1158973D01*
Y1158918D01*
X534189Y1158853D01*
Y1158770D01*
X534198Y1158678D01*
X534207Y1158576D01*
X534235Y1158354D01*
X534281Y1158113D01*
X534337Y1157873D01*
X534411Y1157633D01*
Y1157624D01*
X534420Y1157605D01*
X534438Y1157577D01*
X534457Y1157531D01*
X534512Y1157420D01*
X534596Y1157291D01*
X534697Y1157143D01*
X534827Y1156985D01*
X534975Y1156847D01*
X535150Y1156717D01*
X535160D01*
X535178Y1156708D01*
X535206Y1156690D01*
X535243Y1156671D01*
X535289Y1156653D01*
X535345Y1156625D01*
X535474Y1156570D01*
X535640Y1156514D01*
X535825Y1156468D01*
X536029Y1156431D01*
X536241Y1156422D01*
X536306D01*
X536362Y1156431D01*
X536426D01*
X536491Y1156440D01*
X536657Y1156477D01*
X536852Y1156523D01*
X537046Y1156597D01*
X537249Y1156699D01*
X537351Y1156754D01*
X537443Y1156828D01*
X537453Y1156838D01*
X537462Y1156847D01*
X537490Y1156875D01*
X537527Y1156902D01*
X537563Y1156948D01*
X537610Y1157004D01*
X537665Y1157059D01*
X537711Y1157133D01*
X537767Y1157217D01*
X537832Y1157309D01*
X537887Y1157402D01*
X537943Y1157513D01*
X537989Y1157633D01*
X538035Y1157762D01*
X538081Y1157901D01*
X538118Y1158049D01*
X538969Y1157836D01*
Y1157827D01*
X538960Y1157790D01*
X538941Y1157734D01*
X538913Y1157660D01*
X538886Y1157577D01*
X538849Y1157476D01*
X538802Y1157365D01*
X538747Y1157244D01*
X538617Y1156985D01*
X538451Y1156727D01*
X538349Y1156597D01*
X538248Y1156468D01*
X538137Y1156357D01*
X538007Y1156246D01*
X537998Y1156237D01*
X537980Y1156218D01*
X537933Y1156200D01*
X537887Y1156163D01*
X537813Y1156116D01*
X537739Y1156070D01*
X537637Y1156024D01*
X537536Y1155978D01*
X537416Y1155922D01*
X537286Y1155876D01*
X537147Y1155830D01*
X537000Y1155784D01*
X536842Y1155747D01*
X536676Y1155728D01*
X536500Y1155710D01*
X536315Y1155700D01*
X536214D01*
X536140Y1155710D01*
X536056D01*
X535955Y1155719D01*
X535844Y1155737D01*
X535714Y1155756D01*
X535446Y1155802D01*
X535169Y1155876D01*
X534892Y1155978D01*
X534762Y1156042D01*
X534633Y1156116D01*
X534623Y1156126D01*
X534605Y1156135D01*
X534568Y1156163D01*
X534531Y1156200D01*
X534475Y1156237D01*
X534411Y1156292D01*
X534337Y1156357D01*
X534263Y1156431D01*
X534189Y1156514D01*
X534106Y1156597D01*
X533939Y1156810D01*
X533782Y1157059D01*
X533643Y1157337D01*
Y1157346D01*
X533625Y1157374D01*
X533616Y1157420D01*
X533588Y1157476D01*
X533569Y1157550D01*
X533542Y1157642D01*
X533505Y1157744D01*
X533477Y1157855D01*
X533449Y1157975D01*
X533412Y1158113D01*
X533366Y1158400D01*
X533329Y1158724D01*
X533311Y1159056D01*
Y1159066D01*
Y1159103D01*
Y1159158D01*
X533320Y1159223D01*
Y1159315D01*
X533329Y1159408D01*
X533338Y1159528D01*
X533357Y1159648D01*
X533403Y1159916D01*
X533468Y1160212D01*
X533560Y1160508D01*
X533689Y1160795D01*
X533699Y1160804D01*
X533708Y1160832D01*
X533727Y1160869D01*
X533764Y1160915D01*
X533801Y1160980D01*
X533847Y1161054D01*
X533967Y1161220D01*
X534124Y1161405D01*
X534309Y1161590D01*
X534522Y1161775D01*
X534771Y1161932D01*
X534781Y1161941D01*
X534808Y1161950D01*
X534845Y1161969D01*
X534892Y1161997D01*
X534965Y1162024D01*
X535039Y1162052D01*
X535132Y1162089D01*
X535233Y1162126D01*
X535345Y1162163D01*
X535465Y1162200D01*
X535724Y1162255D01*
X536019Y1162302D01*
X536325Y1162320D01*
X536417D01*
X536482Y1162311D01*
D02*
G37*
G36*
X542991Y1158067D02*
X543860D01*
Y1157346D01*
X542991D01*
Y1155811D01*
X542205D01*
Y1157346D01*
X539422D01*
Y1158067D01*
X542353Y1162209D01*
X542991D01*
Y1158067D01*
D02*
G37*
G36*
X473161Y1120400D02*
X473244Y1120391D01*
X473346Y1120382D01*
X473448Y1120373D01*
X473568Y1120345D01*
X473817Y1120290D01*
X474095Y1120206D01*
X474234Y1120151D01*
X474363Y1120086D01*
X474492Y1120003D01*
X474622Y1119920D01*
X474631Y1119911D01*
X474650Y1119901D01*
X474687Y1119874D01*
X474733Y1119827D01*
X474779Y1119781D01*
X474844Y1119716D01*
X474908Y1119642D01*
X474982Y1119568D01*
X475056Y1119476D01*
X475130Y1119365D01*
X475214Y1119254D01*
X475288Y1119134D01*
X475352Y1118995D01*
X475426Y1118857D01*
X475482Y1118708D01*
X475537Y1118542D01*
X474705Y1118348D01*
Y1118357D01*
X474696Y1118376D01*
X474677Y1118413D01*
X474659Y1118459D01*
X474640Y1118514D01*
X474613Y1118588D01*
X474539Y1118736D01*
X474446Y1118903D01*
X474335Y1119069D01*
X474197Y1119226D01*
X474049Y1119365D01*
X474030Y1119383D01*
X473975Y1119420D01*
X473882Y1119467D01*
X473762Y1119531D01*
X473605Y1119587D01*
X473429Y1119642D01*
X473217Y1119679D01*
X472985Y1119689D01*
X472911D01*
X472865Y1119679D01*
X472800D01*
X472727Y1119670D01*
X472551Y1119642D01*
X472357Y1119605D01*
X472153Y1119541D01*
X471941Y1119448D01*
X471746Y1119328D01*
X471737D01*
X471728Y1119309D01*
X471663Y1119263D01*
X471580Y1119189D01*
X471478Y1119078D01*
X471358Y1118940D01*
X471247Y1118783D01*
X471146Y1118588D01*
X471053Y1118376D01*
Y1118366D01*
X471044Y1118348D01*
X471035Y1118320D01*
X471025Y1118274D01*
X471007Y1118219D01*
X470988Y1118154D01*
X470961Y1117997D01*
X470924Y1117812D01*
X470887Y1117608D01*
X470868Y1117386D01*
X470859Y1117146D01*
Y1117137D01*
Y1117109D01*
Y1117063D01*
Y1117007D01*
X470868Y1116943D01*
Y1116859D01*
X470877Y1116767D01*
X470887Y1116665D01*
X470914Y1116443D01*
X470961Y1116203D01*
X471016Y1115963D01*
X471090Y1115722D01*
Y1115713D01*
X471099Y1115695D01*
X471118Y1115667D01*
X471136Y1115620D01*
X471192Y1115510D01*
X471275Y1115380D01*
X471377Y1115232D01*
X471506Y1115075D01*
X471654Y1114936D01*
X471830Y1114807D01*
X471839D01*
X471857Y1114798D01*
X471885Y1114779D01*
X471922Y1114761D01*
X471968Y1114742D01*
X472024Y1114714D01*
X472153Y1114659D01*
X472320Y1114604D01*
X472505Y1114557D01*
X472708Y1114520D01*
X472921Y1114511D01*
X472985D01*
X473041Y1114520D01*
X473106D01*
X473170Y1114529D01*
X473337Y1114566D01*
X473531Y1114613D01*
X473725Y1114687D01*
X473928Y1114788D01*
X474030Y1114844D01*
X474123Y1114918D01*
X474132Y1114927D01*
X474141Y1114936D01*
X474169Y1114964D01*
X474206Y1114992D01*
X474243Y1115038D01*
X474289Y1115094D01*
X474344Y1115149D01*
X474391Y1115223D01*
X474446Y1115306D01*
X474511Y1115399D01*
X474566Y1115491D01*
X474622Y1115602D01*
X474668Y1115722D01*
X474714Y1115852D01*
X474761Y1115990D01*
X474798Y1116138D01*
X475648Y1115926D01*
Y1115916D01*
X475639Y1115879D01*
X475620Y1115824D01*
X475593Y1115750D01*
X475565Y1115667D01*
X475528Y1115565D01*
X475482Y1115454D01*
X475426Y1115334D01*
X475297Y1115075D01*
X475130Y1114816D01*
X475029Y1114687D01*
X474927Y1114557D01*
X474816Y1114446D01*
X474687Y1114335D01*
X474677Y1114326D01*
X474659Y1114308D01*
X474613Y1114289D01*
X474566Y1114252D01*
X474492Y1114206D01*
X474418Y1114160D01*
X474317Y1114113D01*
X474215Y1114067D01*
X474095Y1114012D01*
X473965Y1113966D01*
X473827Y1113919D01*
X473679Y1113873D01*
X473522Y1113836D01*
X473355Y1113818D01*
X473180Y1113799D01*
X472995Y1113790D01*
X472893D01*
X472819Y1113799D01*
X472736D01*
X472634Y1113808D01*
X472523Y1113827D01*
X472394Y1113845D01*
X472126Y1113892D01*
X471848Y1113966D01*
X471571Y1114067D01*
X471441Y1114132D01*
X471312Y1114206D01*
X471303Y1114215D01*
X471284Y1114224D01*
X471247Y1114252D01*
X471210Y1114289D01*
X471155Y1114326D01*
X471090Y1114382D01*
X471016Y1114446D01*
X470942Y1114520D01*
X470868Y1114604D01*
X470785Y1114687D01*
X470619Y1114899D01*
X470461Y1115149D01*
X470323Y1115426D01*
Y1115436D01*
X470304Y1115463D01*
X470295Y1115510D01*
X470267Y1115565D01*
X470249Y1115639D01*
X470221Y1115731D01*
X470184Y1115833D01*
X470156Y1115944D01*
X470129Y1116064D01*
X470092Y1116203D01*
X470045Y1116490D01*
X470008Y1116813D01*
X469990Y1117146D01*
Y1117155D01*
Y1117192D01*
Y1117248D01*
X469999Y1117312D01*
Y1117405D01*
X470008Y1117497D01*
X470018Y1117618D01*
X470036Y1117738D01*
X470082Y1118006D01*
X470147Y1118302D01*
X470239Y1118598D01*
X470369Y1118884D01*
X470378Y1118893D01*
X470387Y1118921D01*
X470406Y1118958D01*
X470443Y1119004D01*
X470480Y1119069D01*
X470526Y1119143D01*
X470646Y1119309D01*
X470803Y1119494D01*
X470988Y1119679D01*
X471201Y1119864D01*
X471451Y1120021D01*
X471460Y1120031D01*
X471488Y1120040D01*
X471525Y1120058D01*
X471571Y1120086D01*
X471645Y1120114D01*
X471719Y1120142D01*
X471811Y1120179D01*
X471913Y1120216D01*
X472024Y1120253D01*
X472144Y1120290D01*
X472403Y1120345D01*
X472699Y1120391D01*
X473004Y1120410D01*
X473096D01*
X473161Y1120400D01*
D02*
G37*
G36*
X478644Y1120317D02*
X478718Y1120308D01*
X478810Y1120299D01*
X478912Y1120280D01*
X479013Y1120262D01*
X479254Y1120197D01*
X479494Y1120105D01*
X479614Y1120049D01*
X479735Y1119984D01*
X479846Y1119901D01*
X479947Y1119809D01*
X479957Y1119799D01*
X479975Y1119790D01*
X479994Y1119753D01*
X480031Y1119716D01*
X480077Y1119670D01*
X480123Y1119605D01*
X480169Y1119541D01*
X480225Y1119457D01*
X480317Y1119282D01*
X480410Y1119060D01*
X480447Y1118949D01*
X480465Y1118820D01*
X480484Y1118690D01*
X480493Y1118551D01*
Y1118533D01*
Y1118487D01*
X480484Y1118413D01*
X480474Y1118311D01*
X480456Y1118200D01*
X480419Y1118071D01*
X480382Y1117932D01*
X480326Y1117793D01*
X480317Y1117775D01*
X480299Y1117729D01*
X480262Y1117654D01*
X480206Y1117553D01*
X480132Y1117442D01*
X480040Y1117303D01*
X479929Y1117165D01*
X479799Y1117007D01*
X479781Y1116989D01*
X479735Y1116933D01*
X479688Y1116887D01*
X479642Y1116841D01*
X479587Y1116785D01*
X479513Y1116712D01*
X479439Y1116637D01*
X479346Y1116554D01*
X479254Y1116462D01*
X479143Y1116360D01*
X479023Y1116258D01*
X478893Y1116138D01*
X478745Y1116018D01*
X478597Y1115889D01*
X478588Y1115879D01*
X478570Y1115861D01*
X478533Y1115833D01*
X478487Y1115796D01*
X478431Y1115741D01*
X478366Y1115685D01*
X478218Y1115565D01*
X478061Y1115426D01*
X477913Y1115288D01*
X477784Y1115167D01*
X477728Y1115121D01*
X477682Y1115075D01*
X477673Y1115066D01*
X477645Y1115038D01*
X477608Y1115001D01*
X477562Y1114946D01*
X477516Y1114881D01*
X477460Y1114816D01*
X477349Y1114659D01*
X480502D01*
Y1113901D01*
X476258D01*
Y1113910D01*
Y1113947D01*
Y1114003D01*
X476268Y1114077D01*
X476277Y1114160D01*
X476295Y1114252D01*
X476314Y1114345D01*
X476351Y1114446D01*
Y1114456D01*
X476360Y1114465D01*
X476379Y1114520D01*
X476415Y1114604D01*
X476471Y1114714D01*
X476545Y1114844D01*
X476637Y1114992D01*
X476739Y1115140D01*
X476869Y1115297D01*
Y1115306D01*
X476887Y1115315D01*
X476933Y1115371D01*
X477016Y1115454D01*
X477137Y1115574D01*
X477275Y1115713D01*
X477451Y1115879D01*
X477664Y1116064D01*
X477895Y1116258D01*
X477904Y1116268D01*
X477941Y1116295D01*
X477996Y1116342D01*
X478061Y1116397D01*
X478144Y1116471D01*
X478246Y1116554D01*
X478348Y1116647D01*
X478468Y1116749D01*
X478699Y1116970D01*
X478930Y1117192D01*
X479041Y1117303D01*
X479143Y1117414D01*
X479235Y1117516D01*
X479309Y1117618D01*
Y1117627D01*
X479328Y1117636D01*
X479346Y1117664D01*
X479365Y1117701D01*
X479430Y1117803D01*
X479504Y1117923D01*
X479568Y1118071D01*
X479633Y1118228D01*
X479670Y1118403D01*
X479688Y1118570D01*
Y1118579D01*
Y1118588D01*
X479679Y1118644D01*
X479670Y1118736D01*
X479642Y1118838D01*
X479605Y1118967D01*
X479540Y1119097D01*
X479457Y1119226D01*
X479346Y1119356D01*
X479328Y1119374D01*
X479282Y1119411D01*
X479217Y1119457D01*
X479115Y1119522D01*
X478986Y1119578D01*
X478838Y1119633D01*
X478662Y1119670D01*
X478468Y1119679D01*
X478413D01*
X478376Y1119670D01*
X478265Y1119661D01*
X478135Y1119633D01*
X477996Y1119596D01*
X477839Y1119531D01*
X477691Y1119448D01*
X477553Y1119337D01*
X477534Y1119319D01*
X477497Y1119273D01*
X477442Y1119199D01*
X477386Y1119088D01*
X477322Y1118958D01*
X477266Y1118792D01*
X477229Y1118607D01*
X477211Y1118394D01*
X476406Y1118477D01*
Y1118487D01*
X476415Y1118514D01*
Y1118561D01*
X476425Y1118625D01*
X476443Y1118699D01*
X476462Y1118783D01*
X476489Y1118884D01*
X476517Y1118986D01*
X476591Y1119208D01*
X476702Y1119430D01*
X476767Y1119541D01*
X476850Y1119652D01*
X476933Y1119753D01*
X477026Y1119846D01*
X477035Y1119855D01*
X477053Y1119864D01*
X477081Y1119892D01*
X477127Y1119920D01*
X477183Y1119957D01*
X477248Y1119994D01*
X477322Y1120040D01*
X477414Y1120086D01*
X477516Y1120132D01*
X477627Y1120179D01*
X477747Y1120216D01*
X477876Y1120253D01*
X478015Y1120280D01*
X478163Y1120308D01*
X478320Y1120317D01*
X478487Y1120327D01*
X478579D01*
X478644Y1120317D01*
D02*
G37*
G36*
X450850Y1189942D02*
X447882D01*
X447808Y1189951D01*
X447725D01*
X447531Y1189961D01*
X447327Y1189988D01*
X447106Y1190016D01*
X446902Y1190062D01*
X446800Y1190090D01*
X446717Y1190118D01*
X446708D01*
X446699Y1190127D01*
X446643Y1190155D01*
X446560Y1190192D01*
X446458Y1190257D01*
X446348Y1190340D01*
X446227Y1190451D01*
X446116Y1190580D01*
X446005Y1190728D01*
Y1190737D01*
X445996Y1190747D01*
X445959Y1190802D01*
X445922Y1190894D01*
X445867Y1191015D01*
X445821Y1191153D01*
X445774Y1191320D01*
X445746Y1191495D01*
X445737Y1191690D01*
Y1191699D01*
Y1191717D01*
Y1191754D01*
X445746Y1191801D01*
Y1191865D01*
X445756Y1191930D01*
X445793Y1192087D01*
X445848Y1192272D01*
X445922Y1192466D01*
X446033Y1192660D01*
X446107Y1192753D01*
X446181Y1192845D01*
X446190Y1192855D01*
X446199Y1192864D01*
X446227Y1192891D01*
X446264Y1192919D01*
X446311Y1192956D01*
X446366Y1192993D01*
X446440Y1193039D01*
X446514Y1193095D01*
X446606Y1193141D01*
X446708Y1193187D01*
X446819Y1193243D01*
X446939Y1193289D01*
X447078Y1193326D01*
X447217Y1193372D01*
X447374Y1193400D01*
X447540Y1193428D01*
X447522Y1193437D01*
X447485Y1193455D01*
X447429Y1193492D01*
X447355Y1193529D01*
X447189Y1193631D01*
X447106Y1193696D01*
X447032Y1193751D01*
X447013Y1193770D01*
X446967Y1193816D01*
X446893Y1193890D01*
X446800Y1193982D01*
X446699Y1194112D01*
X446579Y1194251D01*
X446458Y1194417D01*
X446329Y1194602D01*
X445229Y1196340D01*
X446283D01*
X447124Y1195009D01*
Y1194999D01*
X447143Y1194981D01*
X447161Y1194953D01*
X447189Y1194916D01*
X447253Y1194815D01*
X447337Y1194685D01*
X447438Y1194546D01*
X447540Y1194398D01*
X447642Y1194260D01*
X447734Y1194130D01*
X447744Y1194121D01*
X447771Y1194084D01*
X447817Y1194029D01*
X447882Y1193964D01*
X448021Y1193825D01*
X448095Y1193761D01*
X448169Y1193705D01*
X448178Y1193696D01*
X448197Y1193687D01*
X448234Y1193668D01*
X448289Y1193640D01*
X448344Y1193613D01*
X448409Y1193585D01*
X448557Y1193539D01*
X448566D01*
X448585Y1193529D01*
X448622D01*
X448668Y1193520D01*
X448733Y1193511D01*
X448807D01*
X448909Y1193502D01*
X450000D01*
Y1196340D01*
X450850D01*
Y1189942D01*
D02*
G37*
G36*
X442215Y1194805D02*
X444998D01*
Y1194084D01*
X442067Y1189942D01*
X441429D01*
Y1194084D01*
X440560D01*
Y1194805D01*
X441429D01*
Y1196340D01*
X442215D01*
Y1194805D01*
D02*
G37*
G36*
X620375Y1153151D02*
X620449Y1153142D01*
X620532Y1153132D01*
X620625Y1153114D01*
X620727Y1153095D01*
X620948Y1153040D01*
X621180Y1152947D01*
X621300Y1152892D01*
X621411Y1152827D01*
X621522Y1152744D01*
X621633Y1152661D01*
X621642Y1152652D01*
X621660Y1152633D01*
X621688Y1152605D01*
X621716Y1152568D01*
X621762Y1152522D01*
X621808Y1152457D01*
X621864Y1152393D01*
X621919Y1152309D01*
X621975Y1152217D01*
X622030Y1152125D01*
X622132Y1151903D01*
X622215Y1151644D01*
X622243Y1151505D01*
X622261Y1151357D01*
X621475Y1151255D01*
Y1151265D01*
X621466Y1151283D01*
X621457Y1151320D01*
X621448Y1151366D01*
X621438Y1151422D01*
X621420Y1151487D01*
X621374Y1151625D01*
X621309Y1151792D01*
X621226Y1151949D01*
X621133Y1152097D01*
X621022Y1152226D01*
X621004Y1152235D01*
X620967Y1152272D01*
X620893Y1152319D01*
X620801Y1152365D01*
X620690Y1152420D01*
X620551Y1152467D01*
X620394Y1152504D01*
X620227Y1152513D01*
X620172D01*
X620135Y1152504D01*
X620033Y1152494D01*
X619904Y1152467D01*
X619756Y1152420D01*
X619599Y1152356D01*
X619441Y1152263D01*
X619294Y1152134D01*
X619275Y1152115D01*
X619229Y1152060D01*
X619173Y1151977D01*
X619099Y1151866D01*
X619025Y1151727D01*
X618970Y1151570D01*
X618924Y1151385D01*
X618905Y1151181D01*
Y1151172D01*
Y1151154D01*
Y1151126D01*
X618914Y1151089D01*
X618924Y1150987D01*
X618951Y1150867D01*
X618988Y1150719D01*
X619053Y1150571D01*
X619146Y1150423D01*
X619266Y1150285D01*
X619284Y1150266D01*
X619330Y1150229D01*
X619404Y1150174D01*
X619506Y1150109D01*
X619636Y1150044D01*
X619793Y1149989D01*
X619968Y1149952D01*
X620163Y1149933D01*
X620246D01*
X620311Y1149943D01*
X620394Y1149952D01*
X620486Y1149970D01*
X620597Y1149989D01*
X620717Y1150017D01*
X620625Y1149323D01*
X620579D01*
X620542Y1149332D01*
X620421D01*
X620320Y1149314D01*
X620200Y1149295D01*
X620061Y1149268D01*
X619904Y1149221D01*
X619756Y1149157D01*
X619599Y1149073D01*
X619589D01*
X619580Y1149064D01*
X619534Y1149027D01*
X619469Y1148963D01*
X619395Y1148879D01*
X619321Y1148759D01*
X619257Y1148621D01*
X619210Y1148463D01*
X619192Y1148371D01*
Y1148269D01*
Y1148260D01*
Y1148251D01*
Y1148195D01*
X619210Y1148121D01*
X619229Y1148019D01*
X619266Y1147909D01*
X619312Y1147788D01*
X619386Y1147668D01*
X619488Y1147557D01*
X619497Y1147548D01*
X619543Y1147511D01*
X619608Y1147465D01*
X619691Y1147409D01*
X619802Y1147363D01*
X619931Y1147317D01*
X620079Y1147280D01*
X620246Y1147271D01*
X620320D01*
X620403Y1147289D01*
X620514Y1147308D01*
X620634Y1147345D01*
X620754Y1147391D01*
X620884Y1147465D01*
X621004Y1147557D01*
X621013Y1147567D01*
X621050Y1147613D01*
X621106Y1147677D01*
X621170Y1147770D01*
X621235Y1147890D01*
X621300Y1148038D01*
X621355Y1148214D01*
X621392Y1148417D01*
X622178Y1148278D01*
Y1148269D01*
X622169Y1148241D01*
X622160Y1148204D01*
X622150Y1148149D01*
X622132Y1148084D01*
X622104Y1148010D01*
X622049Y1147835D01*
X621956Y1147631D01*
X621845Y1147428D01*
X621707Y1147234D01*
X621531Y1147058D01*
X621522Y1147049D01*
X621503Y1147039D01*
X621475Y1147021D01*
X621438Y1146993D01*
X621392Y1146956D01*
X621328Y1146919D01*
X621263Y1146882D01*
X621180Y1146836D01*
X620995Y1146762D01*
X620782Y1146688D01*
X620532Y1146642D01*
X620403Y1146623D01*
X620172D01*
X620070Y1146633D01*
X619950Y1146651D01*
X619802Y1146679D01*
X619636Y1146725D01*
X619469Y1146781D01*
X619303Y1146855D01*
X619294D01*
X619284Y1146864D01*
X619229Y1146892D01*
X619146Y1146947D01*
X619053Y1147012D01*
X618942Y1147104D01*
X618831Y1147206D01*
X618720Y1147326D01*
X618628Y1147465D01*
X618619Y1147483D01*
X618591Y1147530D01*
X618554Y1147613D01*
X618508Y1147714D01*
X618461Y1147835D01*
X618424Y1147973D01*
X618397Y1148130D01*
X618387Y1148288D01*
Y1148306D01*
Y1148362D01*
X618397Y1148436D01*
X618415Y1148537D01*
X618443Y1148658D01*
X618489Y1148787D01*
X618545Y1148916D01*
X618619Y1149046D01*
X618628Y1149064D01*
X618656Y1149101D01*
X618711Y1149166D01*
X618785Y1149240D01*
X618877Y1149323D01*
X618988Y1149416D01*
X619118Y1149499D01*
X619275Y1149582D01*
X619266D01*
X619247Y1149591D01*
X619220Y1149601D01*
X619183Y1149610D01*
X619081Y1149647D01*
X618951Y1149702D01*
X618803Y1149776D01*
X618656Y1149869D01*
X618517Y1149989D01*
X618387Y1150127D01*
X618378Y1150146D01*
X618341Y1150201D01*
X618286Y1150294D01*
X618230Y1150414D01*
X618175Y1150562D01*
X618119Y1150738D01*
X618082Y1150941D01*
X618073Y1151163D01*
Y1151172D01*
Y1151200D01*
Y1151246D01*
X618082Y1151302D01*
X618092Y1151376D01*
X618110Y1151459D01*
X618129Y1151551D01*
X618147Y1151653D01*
X618221Y1151875D01*
X618276Y1151995D01*
X618332Y1152106D01*
X618406Y1152226D01*
X618489Y1152346D01*
X618582Y1152467D01*
X618693Y1152578D01*
X618702Y1152587D01*
X618720Y1152605D01*
X618757Y1152633D01*
X618803Y1152670D01*
X618859Y1152716D01*
X618933Y1152763D01*
X619016Y1152818D01*
X619118Y1152864D01*
X619220Y1152920D01*
X619340Y1152975D01*
X619460Y1153021D01*
X619599Y1153068D01*
X619747Y1153105D01*
X619904Y1153132D01*
X620061Y1153151D01*
X620237Y1153160D01*
X620320D01*
X620375Y1153151D01*
D02*
G37*
G36*
X625821D02*
X625904D01*
X626006Y1153142D01*
X626117Y1153123D01*
X626246Y1153105D01*
X626514Y1153058D01*
X626792Y1152984D01*
X627069Y1152883D01*
X627198Y1152818D01*
X627328Y1152744D01*
X627337Y1152735D01*
X627356Y1152726D01*
X627393Y1152698D01*
X627430Y1152661D01*
X627485Y1152624D01*
X627550Y1152568D01*
X627624Y1152504D01*
X627698Y1152430D01*
X627772Y1152346D01*
X627855Y1152263D01*
X628021Y1152051D01*
X628179Y1151801D01*
X628317Y1151524D01*
Y1151514D01*
X628336Y1151487D01*
X628345Y1151440D01*
X628373Y1151385D01*
X628391Y1151311D01*
X628419Y1151218D01*
X628456Y1151117D01*
X628484Y1151006D01*
X628511Y1150886D01*
X628548Y1150747D01*
X628595Y1150460D01*
X628632Y1150137D01*
X628650Y1149804D01*
Y1149795D01*
Y1149758D01*
Y1149702D01*
X628641Y1149638D01*
Y1149545D01*
X628632Y1149453D01*
X628622Y1149332D01*
X628604Y1149212D01*
X628558Y1148944D01*
X628493Y1148648D01*
X628400Y1148352D01*
X628271Y1148066D01*
X628262Y1148056D01*
X628252Y1148029D01*
X628234Y1147992D01*
X628197Y1147946D01*
X628160Y1147881D01*
X628114Y1147807D01*
X627994Y1147641D01*
X627836Y1147456D01*
X627652Y1147271D01*
X627439Y1147086D01*
X627189Y1146928D01*
X627180Y1146919D01*
X627152Y1146910D01*
X627115Y1146892D01*
X627069Y1146864D01*
X626995Y1146836D01*
X626921Y1146808D01*
X626829Y1146771D01*
X626727Y1146734D01*
X626616Y1146697D01*
X626496Y1146660D01*
X626237Y1146605D01*
X625941Y1146559D01*
X625636Y1146540D01*
X625544D01*
X625479Y1146550D01*
X625396Y1146559D01*
X625294Y1146568D01*
X625192Y1146577D01*
X625072Y1146605D01*
X624822Y1146660D01*
X624545Y1146744D01*
X624406Y1146799D01*
X624277Y1146864D01*
X624147Y1146947D01*
X624018Y1147030D01*
X624009Y1147039D01*
X623990Y1147049D01*
X623953Y1147076D01*
X623907Y1147123D01*
X623861Y1147169D01*
X623796Y1147234D01*
X623731Y1147308D01*
X623657Y1147382D01*
X623583Y1147474D01*
X623509Y1147585D01*
X623426Y1147696D01*
X623352Y1147816D01*
X623288Y1147955D01*
X623214Y1148093D01*
X623158Y1148241D01*
X623103Y1148408D01*
X623935Y1148602D01*
Y1148593D01*
X623944Y1148574D01*
X623963Y1148537D01*
X623981Y1148491D01*
X623999Y1148436D01*
X624027Y1148362D01*
X624101Y1148214D01*
X624194Y1148047D01*
X624305Y1147881D01*
X624443Y1147724D01*
X624591Y1147585D01*
X624610Y1147567D01*
X624665Y1147530D01*
X624758Y1147483D01*
X624878Y1147419D01*
X625035Y1147363D01*
X625211Y1147308D01*
X625423Y1147271D01*
X625654Y1147261D01*
X625728D01*
X625775Y1147271D01*
X625839D01*
X625913Y1147280D01*
X626089Y1147308D01*
X626283Y1147345D01*
X626487Y1147409D01*
X626699Y1147502D01*
X626893Y1147622D01*
X626903D01*
X626912Y1147641D01*
X626977Y1147687D01*
X627060Y1147761D01*
X627161Y1147872D01*
X627282Y1148010D01*
X627393Y1148167D01*
X627494Y1148362D01*
X627587Y1148574D01*
Y1148584D01*
X627596Y1148602D01*
X627605Y1148630D01*
X627615Y1148676D01*
X627633Y1148731D01*
X627652Y1148796D01*
X627679Y1148953D01*
X627716Y1149138D01*
X627753Y1149342D01*
X627772Y1149564D01*
X627781Y1149804D01*
Y1149813D01*
Y1149841D01*
Y1149887D01*
Y1149943D01*
X627772Y1150007D01*
Y1150090D01*
X627762Y1150183D01*
X627753Y1150285D01*
X627725Y1150507D01*
X627679Y1150747D01*
X627624Y1150987D01*
X627550Y1151228D01*
Y1151237D01*
X627541Y1151255D01*
X627522Y1151283D01*
X627504Y1151329D01*
X627448Y1151440D01*
X627365Y1151570D01*
X627263Y1151718D01*
X627134Y1151875D01*
X626986Y1152014D01*
X626810Y1152143D01*
X626801D01*
X626782Y1152152D01*
X626755Y1152171D01*
X626718Y1152189D01*
X626671Y1152208D01*
X626616Y1152235D01*
X626487Y1152291D01*
X626320Y1152346D01*
X626135Y1152393D01*
X625932Y1152430D01*
X625719Y1152439D01*
X625654D01*
X625599Y1152430D01*
X625534D01*
X625470Y1152420D01*
X625303Y1152383D01*
X625109Y1152337D01*
X624915Y1152263D01*
X624711Y1152162D01*
X624610Y1152106D01*
X624517Y1152032D01*
X624508Y1152023D01*
X624499Y1152014D01*
X624471Y1151986D01*
X624434Y1151958D01*
X624397Y1151912D01*
X624351Y1151856D01*
X624295Y1151801D01*
X624249Y1151727D01*
X624194Y1151644D01*
X624129Y1151551D01*
X624073Y1151459D01*
X624018Y1151348D01*
X623972Y1151228D01*
X623926Y1151098D01*
X623879Y1150960D01*
X623842Y1150812D01*
X622992Y1151024D01*
Y1151034D01*
X623001Y1151071D01*
X623019Y1151126D01*
X623047Y1151200D01*
X623075Y1151283D01*
X623112Y1151385D01*
X623158Y1151496D01*
X623214Y1151616D01*
X623343Y1151875D01*
X623509Y1152134D01*
X623611Y1152263D01*
X623713Y1152393D01*
X623824Y1152504D01*
X623953Y1152615D01*
X623963Y1152624D01*
X623981Y1152642D01*
X624027Y1152661D01*
X624073Y1152698D01*
X624147Y1152744D01*
X624221Y1152790D01*
X624323Y1152837D01*
X624425Y1152883D01*
X624545Y1152938D01*
X624674Y1152984D01*
X624813Y1153031D01*
X624961Y1153077D01*
X625118Y1153114D01*
X625285Y1153132D01*
X625460Y1153151D01*
X625645Y1153160D01*
X625747D01*
X625821Y1153151D01*
D02*
G37*
G36*
X494744Y1202950D02*
X494827Y1202941D01*
X494929Y1202932D01*
X495031Y1202922D01*
X495151Y1202895D01*
X495400Y1202839D01*
X495678Y1202756D01*
X495816Y1202700D01*
X495946Y1202636D01*
X496075Y1202552D01*
X496205Y1202469D01*
X496214Y1202460D01*
X496232Y1202451D01*
X496269Y1202423D01*
X496316Y1202377D01*
X496362Y1202330D01*
X496427Y1202266D01*
X496491Y1202192D01*
X496565Y1202118D01*
X496639Y1202025D01*
X496713Y1201915D01*
X496796Y1201804D01*
X496870Y1201683D01*
X496935Y1201545D01*
X497009Y1201406D01*
X497065Y1201258D01*
X497120Y1201092D01*
X496288Y1200897D01*
Y1200907D01*
X496279Y1200925D01*
X496260Y1200962D01*
X496242Y1201008D01*
X496223Y1201064D01*
X496195Y1201138D01*
X496121Y1201286D01*
X496029Y1201452D01*
X495918Y1201619D01*
X495779Y1201776D01*
X495631Y1201915D01*
X495613Y1201933D01*
X495558Y1201970D01*
X495465Y1202016D01*
X495345Y1202081D01*
X495188Y1202136D01*
X495012Y1202192D01*
X494799Y1202229D01*
X494568Y1202238D01*
X494494D01*
X494448Y1202229D01*
X494383D01*
X494309Y1202220D01*
X494134Y1202192D01*
X493940Y1202155D01*
X493736Y1202090D01*
X493523Y1201998D01*
X493329Y1201878D01*
X493320D01*
X493311Y1201859D01*
X493246Y1201813D01*
X493163Y1201739D01*
X493061Y1201628D01*
X492941Y1201489D01*
X492830Y1201332D01*
X492728Y1201138D01*
X492636Y1200925D01*
Y1200916D01*
X492627Y1200897D01*
X492617Y1200870D01*
X492608Y1200824D01*
X492590Y1200768D01*
X492571Y1200703D01*
X492543Y1200546D01*
X492506Y1200361D01*
X492469Y1200158D01*
X492451Y1199936D01*
X492442Y1199696D01*
Y1199686D01*
Y1199659D01*
Y1199612D01*
Y1199557D01*
X492451Y1199492D01*
Y1199409D01*
X492460Y1199316D01*
X492469Y1199215D01*
X492497Y1198993D01*
X492543Y1198753D01*
X492599Y1198512D01*
X492673Y1198272D01*
Y1198262D01*
X492682Y1198244D01*
X492701Y1198216D01*
X492719Y1198170D01*
X492775Y1198059D01*
X492858Y1197930D01*
X492960Y1197782D01*
X493089Y1197625D01*
X493237Y1197486D01*
X493413Y1197356D01*
X493422D01*
X493440Y1197347D01*
X493468Y1197329D01*
X493505Y1197310D01*
X493551Y1197292D01*
X493607Y1197264D01*
X493736Y1197208D01*
X493903Y1197153D01*
X494087Y1197107D01*
X494291Y1197070D01*
X494504Y1197060D01*
X494568D01*
X494624Y1197070D01*
X494688D01*
X494753Y1197079D01*
X494920Y1197116D01*
X495114Y1197162D01*
X495308Y1197236D01*
X495511Y1197338D01*
X495613Y1197393D01*
X495705Y1197467D01*
X495715Y1197477D01*
X495724Y1197486D01*
X495752Y1197514D01*
X495789Y1197541D01*
X495826Y1197588D01*
X495872Y1197643D01*
X495927Y1197699D01*
X495974Y1197772D01*
X496029Y1197856D01*
X496094Y1197948D01*
X496149Y1198041D01*
X496205Y1198151D01*
X496251Y1198272D01*
X496297Y1198401D01*
X496343Y1198540D01*
X496380Y1198688D01*
X497231Y1198475D01*
Y1198466D01*
X497222Y1198429D01*
X497203Y1198373D01*
X497175Y1198299D01*
X497148Y1198216D01*
X497111Y1198114D01*
X497065Y1198004D01*
X497009Y1197883D01*
X496880Y1197625D01*
X496713Y1197366D01*
X496612Y1197236D01*
X496510Y1197107D01*
X496399Y1196996D01*
X496269Y1196885D01*
X496260Y1196876D01*
X496242Y1196857D01*
X496195Y1196839D01*
X496149Y1196802D01*
X496075Y1196755D01*
X496001Y1196709D01*
X495900Y1196663D01*
X495798Y1196617D01*
X495678Y1196561D01*
X495548Y1196515D01*
X495410Y1196469D01*
X495262Y1196423D01*
X495104Y1196386D01*
X494938Y1196367D01*
X494762Y1196349D01*
X494577Y1196339D01*
X494476D01*
X494402Y1196349D01*
X494319D01*
X494217Y1196358D01*
X494106Y1196376D01*
X493977Y1196395D01*
X493708Y1196441D01*
X493431Y1196515D01*
X493154Y1196617D01*
X493024Y1196682D01*
X492895Y1196755D01*
X492886Y1196765D01*
X492867Y1196774D01*
X492830Y1196802D01*
X492793Y1196839D01*
X492738Y1196876D01*
X492673Y1196931D01*
X492599Y1196996D01*
X492525Y1197070D01*
X492451Y1197153D01*
X492368Y1197236D01*
X492201Y1197449D01*
X492044Y1197699D01*
X491906Y1197976D01*
Y1197985D01*
X491887Y1198013D01*
X491878Y1198059D01*
X491850Y1198114D01*
X491832Y1198188D01*
X491804Y1198281D01*
X491767Y1198383D01*
X491739Y1198494D01*
X491711Y1198614D01*
X491674Y1198753D01*
X491628Y1199039D01*
X491591Y1199363D01*
X491573Y1199696D01*
Y1199705D01*
Y1199742D01*
Y1199797D01*
X491582Y1199862D01*
Y1199954D01*
X491591Y1200047D01*
X491600Y1200167D01*
X491619Y1200287D01*
X491665Y1200555D01*
X491730Y1200851D01*
X491822Y1201147D01*
X491952Y1201434D01*
X491961Y1201443D01*
X491970Y1201471D01*
X491989Y1201508D01*
X492026Y1201554D01*
X492063Y1201619D01*
X492109Y1201693D01*
X492229Y1201859D01*
X492386Y1202044D01*
X492571Y1202229D01*
X492784Y1202414D01*
X493033Y1202571D01*
X493043Y1202580D01*
X493070Y1202589D01*
X493107Y1202608D01*
X493154Y1202636D01*
X493228Y1202663D01*
X493302Y1202691D01*
X493394Y1202728D01*
X493496Y1202765D01*
X493607Y1202802D01*
X493727Y1202839D01*
X493986Y1202895D01*
X494282Y1202941D01*
X494587Y1202959D01*
X494679D01*
X494744Y1202950D01*
D02*
G37*
G36*
X500911Y1196450D02*
X500125D01*
Y1201452D01*
X500116Y1201443D01*
X500069Y1201406D01*
X500014Y1201350D01*
X499921Y1201286D01*
X499820Y1201203D01*
X499690Y1201110D01*
X499542Y1201008D01*
X499376Y1200907D01*
X499367D01*
X499357Y1200897D01*
X499302Y1200861D01*
X499210Y1200814D01*
X499099Y1200759D01*
X498969Y1200694D01*
X498830Y1200629D01*
X498692Y1200565D01*
X498553Y1200509D01*
Y1201267D01*
X498562D01*
X498581Y1201286D01*
X498618Y1201295D01*
X498664Y1201323D01*
X498719Y1201350D01*
X498784Y1201387D01*
X498941Y1201480D01*
X499126Y1201582D01*
X499311Y1201711D01*
X499505Y1201859D01*
X499700Y1202016D01*
X499709Y1202025D01*
X499718Y1202035D01*
X499746Y1202062D01*
X499783Y1202090D01*
X499866Y1202183D01*
X499977Y1202293D01*
X500088Y1202423D01*
X500208Y1202571D01*
X500310Y1202719D01*
X500402Y1202876D01*
X500911D01*
Y1196450D01*
D02*
G37*
%LPC*%
G36*
X538993Y1061850D02*
X537088D01*
X536977Y1061841D01*
X536848Y1061832D01*
X536700Y1061823D01*
X536552Y1061804D01*
X536404Y1061776D01*
X536275Y1061739D01*
X536256Y1061730D01*
X536219Y1061712D01*
X536164Y1061684D01*
X536090Y1061647D01*
X536007Y1061591D01*
X535923Y1061527D01*
X535840Y1061443D01*
X535775Y1061351D01*
X535766Y1061342D01*
X535748Y1061305D01*
X535720Y1061249D01*
X535683Y1061175D01*
X535655Y1061092D01*
X535628Y1061000D01*
X535609Y1060889D01*
X535600Y1060778D01*
Y1060769D01*
Y1060759D01*
X535609Y1060704D01*
X535618Y1060621D01*
X535637Y1060510D01*
X535683Y1060399D01*
X535738Y1060269D01*
X535822Y1060149D01*
X535933Y1060029D01*
X535951Y1060020D01*
X535997Y1059983D01*
X536071Y1059937D01*
X536191Y1059881D01*
X536330Y1059826D01*
X536515Y1059779D01*
X536728Y1059742D01*
X536977Y1059733D01*
X538993D01*
Y1061850D01*
D02*
G37*
G36*
X597804Y1070369D02*
X597749D01*
X597712Y1070359D01*
X597619Y1070350D01*
X597490Y1070322D01*
X597351Y1070276D01*
X597194Y1070202D01*
X597046Y1070110D01*
X596898Y1069980D01*
X596880Y1069962D01*
X596843Y1069916D01*
X596778Y1069832D01*
X596713Y1069712D01*
X596649Y1069574D01*
X596584Y1069398D01*
X596547Y1069204D01*
X596528Y1068982D01*
Y1068963D01*
Y1068917D01*
X596538Y1068834D01*
X596547Y1068732D01*
X596565Y1068612D01*
X596602Y1068483D01*
X596639Y1068344D01*
X596695Y1068205D01*
X596704Y1068187D01*
X596732Y1068140D01*
X596769Y1068076D01*
X596824Y1067993D01*
X596889Y1067909D01*
X596972Y1067808D01*
X597065Y1067724D01*
X597176Y1067641D01*
X597194Y1067632D01*
X597231Y1067614D01*
X597296Y1067577D01*
X597379Y1067549D01*
X597472Y1067512D01*
X597582Y1067475D01*
X597703Y1067456D01*
X597832Y1067447D01*
X597878D01*
X597915Y1067456D01*
X598008Y1067466D01*
X598128Y1067493D01*
X598257Y1067549D01*
X598405Y1067614D01*
X598553Y1067715D01*
X598627Y1067771D01*
X598692Y1067845D01*
Y1067854D01*
X598710Y1067863D01*
X598747Y1067919D01*
X598803Y1068011D01*
X598877Y1068131D01*
X598941Y1068288D01*
X598997Y1068473D01*
X599034Y1068686D01*
X599053Y1068936D01*
Y1068945D01*
Y1068963D01*
Y1069000D01*
X599043Y1069047D01*
Y1069102D01*
X599034Y1069167D01*
X599006Y1069315D01*
X598969Y1069481D01*
X598904Y1069657D01*
X598812Y1069823D01*
X598692Y1069980D01*
X598673Y1069999D01*
X598627Y1070045D01*
X598553Y1070101D01*
X598451Y1070174D01*
X598322Y1070248D01*
X598174Y1070304D01*
X597999Y1070350D01*
X597804Y1070369D01*
D02*
G37*
G36*
X631516Y1110697D02*
X629501D01*
Y1108580D01*
X631405D01*
X631516Y1108589D01*
X631645Y1108598D01*
X631793Y1108607D01*
X631941Y1108626D01*
X632089Y1108654D01*
X632219Y1108691D01*
X632237Y1108700D01*
X632274Y1108718D01*
X632330Y1108746D01*
X632404Y1108783D01*
X632487Y1108839D01*
X632570Y1108903D01*
X632653Y1108986D01*
X632718Y1109079D01*
X632727Y1109088D01*
X632746Y1109125D01*
X632773Y1109181D01*
X632810Y1109255D01*
X632838Y1109338D01*
X632866Y1109430D01*
X632884Y1109541D01*
X632894Y1109652D01*
Y1109661D01*
Y1109671D01*
X632884Y1109726D01*
X632875Y1109809D01*
X632857Y1109920D01*
X632810Y1110031D01*
X632755Y1110161D01*
X632672Y1110281D01*
X632561Y1110401D01*
X632542Y1110410D01*
X632496Y1110447D01*
X632422Y1110493D01*
X632302Y1110549D01*
X632163Y1110604D01*
X631978Y1110651D01*
X631766Y1110688D01*
X631516Y1110697D01*
D02*
G37*
G36*
X636869Y1110789D02*
X636795D01*
X636712Y1110771D01*
X636601Y1110752D01*
X636481Y1110715D01*
X636352Y1110669D01*
X636231Y1110595D01*
X636111Y1110493D01*
X636102Y1110484D01*
X636065Y1110447D01*
X636019Y1110383D01*
X635972Y1110299D01*
X635917Y1110198D01*
X635871Y1110077D01*
X635834Y1109948D01*
X635825Y1109800D01*
Y1109791D01*
Y1109781D01*
X635834Y1109726D01*
X635843Y1109643D01*
X635861Y1109541D01*
X635898Y1109421D01*
X635945Y1109301D01*
X636019Y1109171D01*
X636111Y1109060D01*
X636120Y1109051D01*
X636166Y1109014D01*
X636231Y1108968D01*
X636315Y1108922D01*
X636425Y1108866D01*
X636555Y1108820D01*
X636703Y1108783D01*
X636869Y1108774D01*
X636888D01*
X636943Y1108783D01*
X637026Y1108792D01*
X637137Y1108811D01*
X637257Y1108848D01*
X637378Y1108894D01*
X637507Y1108968D01*
X637618Y1109060D01*
X637627Y1109070D01*
X637664Y1109116D01*
X637711Y1109171D01*
X637766Y1109255D01*
X637822Y1109356D01*
X637868Y1109476D01*
X637905Y1109615D01*
X637914Y1109763D01*
Y1109772D01*
Y1109781D01*
Y1109837D01*
X637896Y1109920D01*
X637877Y1110022D01*
X637840Y1110133D01*
X637785Y1110253D01*
X637711Y1110373D01*
X637609Y1110493D01*
X637600Y1110503D01*
X637553Y1110540D01*
X637489Y1110586D01*
X637406Y1110641D01*
X637295Y1110697D01*
X637174Y1110743D01*
X637026Y1110780D01*
X636869Y1110789D01*
D02*
G37*
G36*
X636842Y1108136D02*
X636786D01*
X636749Y1108127D01*
X636647Y1108117D01*
X636518Y1108090D01*
X636370Y1108043D01*
X636222Y1107979D01*
X636065Y1107886D01*
X635926Y1107766D01*
X635908Y1107747D01*
X635871Y1107701D01*
X635815Y1107618D01*
X635751Y1107516D01*
X635676Y1107378D01*
X635621Y1107221D01*
X635584Y1107045D01*
X635566Y1106851D01*
Y1106832D01*
Y1106795D01*
X635575Y1106730D01*
X635584Y1106647D01*
X635603Y1106546D01*
X635630Y1106435D01*
X635667Y1106324D01*
X635714Y1106204D01*
X635723Y1106194D01*
X635741Y1106148D01*
X635778Y1106093D01*
X635834Y1106028D01*
X635898Y1105945D01*
X635982Y1105861D01*
X636074Y1105788D01*
X636185Y1105714D01*
X636203Y1105704D01*
X636241Y1105686D01*
X636305Y1105658D01*
X636388Y1105630D01*
X636490Y1105602D01*
X636610Y1105575D01*
X636740Y1105556D01*
X636869Y1105547D01*
X636925D01*
X636962Y1105556D01*
X637073Y1105566D01*
X637202Y1105593D01*
X637350Y1105639D01*
X637507Y1105695D01*
X637655Y1105788D01*
X637803Y1105908D01*
X637822Y1105926D01*
X637859Y1105972D01*
X637923Y1106056D01*
X637988Y1106157D01*
X638053Y1106287D01*
X638117Y1106444D01*
X638154Y1106629D01*
X638173Y1106823D01*
Y1106832D01*
Y1106851D01*
Y1106878D01*
X638164Y1106915D01*
X638154Y1107017D01*
X638127Y1107156D01*
X638080Y1107294D01*
X638016Y1107452D01*
X637923Y1107609D01*
X637794Y1107757D01*
X637775Y1107775D01*
X637729Y1107812D01*
X637646Y1107877D01*
X637535Y1107951D01*
X637396Y1108016D01*
X637230Y1108080D01*
X637045Y1108117D01*
X636842Y1108136D01*
D02*
G37*
G36*
X579392Y1150861D02*
X577487D01*
X577376Y1150852D01*
X577247Y1150843D01*
X577099Y1150834D01*
X576951Y1150815D01*
X576803Y1150787D01*
X576673Y1150750D01*
X576655Y1150741D01*
X576618Y1150723D01*
X576562Y1150695D01*
X576488Y1150658D01*
X576405Y1150602D01*
X576322Y1150538D01*
X576239Y1150454D01*
X576174Y1150362D01*
X576165Y1150353D01*
X576146Y1150316D01*
X576119Y1150260D01*
X576082Y1150186D01*
X576054Y1150103D01*
X576026Y1150011D01*
X576008Y1149900D01*
X575998Y1149789D01*
Y1149780D01*
Y1149770D01*
X576008Y1149715D01*
X576017Y1149632D01*
X576035Y1149521D01*
X576082Y1149410D01*
X576137Y1149280D01*
X576220Y1149160D01*
X576331Y1149040D01*
X576350Y1149031D01*
X576396Y1148994D01*
X576470Y1148947D01*
X576590Y1148892D01*
X576729Y1148837D01*
X576914Y1148790D01*
X577127Y1148753D01*
X577376Y1148744D01*
X579392D01*
Y1150861D01*
D02*
G37*
G36*
X630358Y1057607D02*
X630349D01*
X630340D01*
X630284Y1057598D01*
X630201Y1057589D01*
X630090Y1057570D01*
X629979Y1057524D01*
X629850Y1057469D01*
X629729Y1057386D01*
X629609Y1057275D01*
X629600Y1057256D01*
X629563Y1057210D01*
X629517Y1057136D01*
X629461Y1057016D01*
X629406Y1056877D01*
X629360Y1056692D01*
X629323Y1056479D01*
X629313Y1056230D01*
Y1054214D01*
X631431D01*
Y1056119D01*
X631421Y1056230D01*
X631412Y1056359D01*
X631403Y1056507D01*
X631384Y1056655D01*
X631357Y1056803D01*
X631320Y1056933D01*
X631310Y1056951D01*
X631292Y1056988D01*
X631264Y1057044D01*
X631227Y1057117D01*
X631172Y1057201D01*
X631107Y1057284D01*
X631024Y1057367D01*
X630931Y1057432D01*
X630922Y1057441D01*
X630885Y1057460D01*
X630830Y1057487D01*
X630756Y1057524D01*
X630672Y1057552D01*
X630580Y1057580D01*
X630469Y1057598D01*
X630358Y1057607D01*
D02*
G37*
G36*
X542205Y1160933D02*
X540189Y1158067D01*
X542205D01*
Y1160933D01*
D02*
G37*
G36*
X450000Y1192771D02*
X448095D01*
X447984Y1192762D01*
X447854Y1192753D01*
X447707Y1192744D01*
X447559Y1192725D01*
X447411Y1192697D01*
X447281Y1192660D01*
X447263Y1192651D01*
X447226Y1192633D01*
X447170Y1192605D01*
X447096Y1192568D01*
X447013Y1192512D01*
X446930Y1192448D01*
X446847Y1192365D01*
X446782Y1192272D01*
X446773Y1192263D01*
X446754Y1192226D01*
X446726Y1192170D01*
X446690Y1192096D01*
X446662Y1192013D01*
X446634Y1191921D01*
X446616Y1191810D01*
X446606Y1191699D01*
Y1191690D01*
Y1191680D01*
X446616Y1191625D01*
X446625Y1191542D01*
X446643Y1191431D01*
X446690Y1191320D01*
X446745Y1191190D01*
X446828Y1191070D01*
X446939Y1190950D01*
X446958Y1190941D01*
X447004Y1190904D01*
X447078Y1190857D01*
X447198Y1190802D01*
X447337Y1190747D01*
X447522Y1190700D01*
X447734Y1190663D01*
X447984Y1190654D01*
X450000D01*
Y1192771D01*
D02*
G37*
G36*
X444230Y1194084D02*
X442215D01*
Y1191218D01*
X444230Y1194084D01*
D02*
G37*
%LPD*%
D11*
X399480Y1137173D02*
Y1201173D01*
X423480D01*
Y1137173D02*
Y1201173D01*
X399480Y1137173D02*
X423480D01*
X528312Y1059530D02*
X551375D01*
X528312D02*
Y1071530D01*
X551375D01*
Y1059530D02*
Y1071530D01*
X569249Y1077831D02*
X609311D01*
Y1055769D02*
Y1077831D01*
X569249Y1055769D02*
X609311D01*
X569249D02*
Y1077831D01*
X433469Y1131949D02*
Y1172011D01*
X455531D01*
Y1131949D02*
Y1172011D01*
X433469Y1131949D02*
X455531D01*
X486809Y1034159D02*
Y1074221D01*
X508871D01*
Y1034159D02*
Y1074221D01*
X486809Y1034159D02*
X508871D01*
X616401Y1110899D02*
X640900D01*
Y1098898D02*
Y1110899D01*
X616401Y1098898D02*
X640900D01*
X616401D02*
Y1110899D01*
X565682Y1147369D02*
X594804D01*
X565682D02*
Y1161491D01*
X594804D01*
Y1147369D02*
Y1161491D01*
X471581Y1164160D02*
X498702D01*
Y1142160D02*
Y1164160D01*
X471581Y1142160D02*
X498702D01*
X471581D02*
Y1164160D01*
X624689Y1034535D02*
Y1072193D01*
X645311D01*
Y1034535D02*
Y1072193D01*
X624689Y1034535D02*
X645311D01*
X513279Y1166731D02*
X553341D01*
Y1144669D02*
Y1166731D01*
X513279Y1144669D02*
X553341D01*
X513279D02*
Y1166731D01*
X449959Y1124821D02*
X490021D01*
Y1102759D02*
Y1124821D01*
X449959Y1102759D02*
X490021D01*
X449959D02*
Y1124821D01*
X438600Y1190340D02*
X463099D01*
X438600D02*
Y1202340D01*
X463099D01*
Y1190340D02*
Y1202340D01*
X608619Y1142129D02*
X648681D01*
X608619D02*
Y1164191D01*
X648681D01*
Y1142129D02*
Y1164191D01*
X480512Y1201840D02*
X502634D01*
Y1190840D02*
Y1201840D01*
X480512Y1190840D02*
X502634D01*
X480512D02*
Y1201840D01*
M02*
